<!DOCTYPE svg PUBLIC "-//W3C//DTD SVG 20010904//EN" "http://www.w3.org/TR/2001/REC-SVG-20010904/DTD/svg10.dtd">
<svg version="1.0" xmlns="http://www.w3.org/2000/svg" width="1251px" height="484px" viewBox="0 0 12000 4640" preserveAspectRatio="xMidYMid meet">
<g id="layer101" fill="#383838" stroke="none">
<path d="M0 2320 l0 -2320 6000 0 6000 0 0 2320 0 2320 -6000 0 -6000 0 0 -2320z"/>
</g>
<g id="layer102" fill="#216d30" stroke="none">
<path d="M0 2320 l0 -2320 6000 0 6000 0 0 2320 0 2320 -6000 0 -6000 0 0 -2320z m5770 2165 c25 -2 52 -6 60 -9 15 -5 277 -44 315 -46 52 -3 81 -8 98 -15 9 -4 24 -5 32 -2 8 4 17 2 21 -4 3 -6 20 -9 38 -8 17 1 42 -1 56 -5 14 -3 43 -8 65 -10 40 -3 40 -4 47 -52 4 -27 3 -71 -2 -99 -5 -27 -9 -75 -9 -105 0 -30 -2 -95 -6 -145 -3 -49 -7 -124 -8 -165 -2 -41 -7 -83 -11 -93 -5 -10 -6 -47 -3 -83 3 -38 1 -67 -5 -70 -6 -4 -9 -40 -6 -91 2 -46 0 -87 -5 -90 -5 -3 -8 -40 -6 -82 1 -42 -2 -84 -6 -94 -4 -10 -5 -56 -2 -103 2 -46 1 -87 -4 -90 -16 -10 -9 -22 25 -42 27 -16 33 -25 29 -45 -3 -13 0 -28 5 -31 6 -4 8 -21 5 -39 -9 -59 1 -62 261 -62 127 0 260 3 296 7 140 15 348 20 355 8 5 -8 78 -11 243 -11 131 0 350 -2 487 -5 138 -3 341 -5 453 -4 147 1 208 -2 218 -11 11 -9 69 -11 234 -6 157 5 221 4 226 -4 5 -8 69 -10 218 -8 116 2 346 -1 511 -6 165 -6 338 -9 385 -7 136 4 207 -6 213 -29 5 -17 15 -19 89 -19 47 0 89 -5 95 -11 6 -6 39 -12 74 -13 53 -2 67 0 80 17 14 17 18 18 40 6 13 -8 29 -20 35 -28 9 -12 58 -13 302 -8 160 4 357 4 437 0 l145 -6 0 -66 0 -66 -442 -1 c-315 -1 -443 -5 -446 -13 -6 -17 -69 -14 -76 4 -8 22 -93 20 -131 -4 l-30 -18 2 -174 c2 -96 3 -183 4 -194 0 -11 -13 -68 -28 -127 l-28 -108 -68 0 -68 0 6 98 c3 53 7 117 8 141 l2 44 -69 3 c-57 3 -72 7 -84 25 -14 21 -17 21 -231 13 -119 -4 -504 -9 -856 -10 -352 -2 -896 -5 -1210 -6 l-570 -3 -3 -35 -3 -35 -109 3 -110 3 0 35 0 34 -133 0 c-85 0 -137 -4 -144 -11 -8 -8 -415 -12 -1508 -14 -823 -2 -1499 -6 -1502 -9 -4 -3 -25 -6 -49 -6 -65 0 -67 -21 -8 -107 13 -20 24 -39 24 -43 0 -6 -67 -39 -137 -67 -6 -2 -18 9 -27 25 -14 27 -21 30 -85 36 -38 3 -77 9 -86 12 -23 9 -38 51 -36 101 4 64 -6 84 -34 77 -12 -3 -26 -1 -29 5 -10 16 -93 14 -99 -3 -4 -10 -43 -15 -155 -21 -147 -7 -152 -6 -229 20 -138 48 -249 111 -376 214 -39 32 -90 64 -111 71 -31 10 -107 11 -328 6 -224 -6 -292 -5 -304 5 -11 9 -85 11 -324 5 -233 -5 -310 -4 -316 5 -5 9 -87 11 -335 6 -213 -4 -331 -2 -335 4 -3 6 -67 10 -152 10 -175 1 -201 3 -314 24 l-88 17 4 53 c2 30 7 58 11 64 3 6 8 33 10 60 1 27 6 55 10 61 3 6 5 23 4 38 -2 15 1 34 6 42 5 8 10 92 10 187 0 94 3 175 8 179 10 11 9 52 -3 59 -7 4 -8 45 -4 115 4 59 4 116 0 126 -8 20 -20 178 -20 269 -1 42 4 69 17 88 17 27 18 27 142 27 69 0 133 -4 143 -10 9 -5 67 -30 127 -55 61 -26 135 -57 165 -70 30 -13 96 -40 145 -59 50 -19 140 -56 200 -81 61 -26 178 -74 260 -107 83 -33 225 -91 316 -128 169 -70 225 -92 404 -160 55 -21 171 -65 259 -99 184 -71 292 -105 312 -97 7 3 16 0 20 -5 4 -8 116 -9 364 -4 262 6 359 5 364 -4 9 -14 239 -15 266 -1 10 5 20 20 24 34 4 17 17 28 41 36 103 34 157 170 106 268 -47 88 -216 324 -283 395 -16 16 -28 31 -28 33 0 3 -34 54 -75 113 -62 90 -75 116 -75 148 0 48 11 59 140 142 180 116 339 188 458 207 45 7 46 5 42 -44 -2 -31 19 -119 37 -157 9 -16 29 -44 45 -61 18 -19 45 -73 69 -135 21 -57 46 -107 55 -112 8 -5 45 -68 80 -140 36 -73 69 -133 73 -135 5 -2 49 17 99 41 61 31 98 43 116 40 14 -3 34 -2 43 2 10 4 52 7 94 6 47 -2 79 2 83 8 9 14 103 14 111 1 3 -5 26 -10 51 -10 58 0 98 -18 156 -69 58 -51 82 -112 100 -248 l13 -98 93 -3 c103 -3 100 -6 77 72 -16 54 -20 116 -7 116 5 0 20 -44 33 -97 l25 -98 37 -2 c51 -3 59 17 63 151 1 62 6 120 10 130 4 10 4 53 1 97 -4 52 -3 80 5 85 7 5 9 33 5 85 -4 52 -3 81 5 85 7 4 9 30 5 75 -4 42 -2 71 4 75 6 3 9 34 8 68 -1 35 1 68 5 74 4 7 6 44 5 82 -1 39 1 73 4 77 4 3 7 29 7 56 l0 49 48 -7 c26 -4 67 -9 92 -10z m1536 -131 c37 -18 84 -80 84 -111 0 -12 5 -25 10 -28 19 -11 10 -40 -30 -95 -55 -77 -74 -115 -66 -135 4 -12 14 -16 31 -13 20 4 23 2 14 -8 -6 -7 -17 -10 -25 -7 -11 4 -15 0 -12 -13 2 -15 -4 -20 -32 -22 -19 -2 -39 -8 -44 -13 -17 -16 -36 -10 -46 16 -12 32 -40 32 -70 0 -32 -34 -78 -31 -99 6 -13 24 -13 29 2 53 24 37 82 37 99 1 14 -31 58 -35 58 -5 0 23 -20 70 -31 70 -18 0 -73 57 -87 90 -16 38 -21 89 -10 97 5 2 8 12 8 21 0 26 50 79 95 102 44 22 95 20 151 -6z"/>
</g>
<g id="layer103" fill="#4e4e4e" stroke="none">
<path d="M0 2320 l0 -2320 6000 0 6000 0 0 2320 0 2320 -6000 0 -6000 0 0 -2320z m5770 2165 c25 -2 52 -6 60 -9 15 -5 277 -44 315 -46 52 -3 81 -8 98 -15 9 -4 24 -5 32 -2 8 4 17 2 21 -4 3 -6 20 -9 38 -8 17 1 42 -1 56 -5 14 -3 43 -8 65 -10 40 -3 40 -4 47 -52 4 -27 3 -71 -2 -99 -5 -27 -9 -75 -9 -105 0 -30 -2 -95 -6 -145 -3 -49 -7 -124 -8 -165 -2 -41 -7 -83 -11 -93 -5 -10 -6 -47 -3 -83 3 -38 1 -67 -5 -70 -6 -4 -9 -40 -6 -91 2 -46 0 -87 -5 -90 -5 -3 -8 -40 -6 -82 1 -42 -2 -84 -6 -94 -4 -10 -5 -56 -2 -103 2 -46 1 -87 -4 -90 -16 -10 -9 -22 25 -42 27 -16 33 -25 29 -45 -3 -13 0 -28 5 -31 6 -4 8 -21 5 -39 -9 -59 1 -62 261 -62 127 0 260 3 296 7 140 15 348 20 355 8 5 -8 78 -11 243 -11 131 0 350 -2 487 -5 138 -3 341 -5 453 -4 147 1 208 -2 218 -11 11 -9 69 -11 234 -6 157 5 221 4 226 -4 5 -8 69 -10 218 -8 116 2 346 -1 511 -6 165 -6 338 -9 385 -7 136 4 207 -6 213 -29 5 -17 15 -19 89 -19 47 0 89 -5 95 -11 6 -6 39 -12 74 -13 53 -2 67 0 80 17 14 17 18 18 40 6 13 -8 29 -20 35 -28 9 -12 58 -13 302 -8 160 4 357 4 437 0 l145 -6 0 -66 0 -66 -442 -1 c-315 -1 -443 -5 -446 -13 -6 -17 -69 -14 -76 4 -8 22 -93 20 -131 -4 l-30 -18 2 -174 c2 -96 3 -183 4 -194 0 -11 -13 -68 -28 -127 l-28 -108 -68 0 -68 0 6 98 c3 53 7 117 8 141 l2 44 -69 3 c-57 3 -72 7 -84 25 -14 21 -17 21 -231 13 -119 -4 -504 -9 -856 -10 -352 -2 -896 -5 -1210 -6 l-570 -3 -3 -35 -3 -35 -109 3 -110 3 0 35 0 34 -133 0 c-85 0 -137 -4 -144 -11 -8 -8 -415 -12 -1508 -14 -823 -2 -1499 -6 -1502 -9 -4 -3 -25 -6 -49 -6 -65 0 -67 -21 -8 -107 13 -20 24 -39 24 -43 0 -6 -67 -39 -137 -67 -6 -2 -18 9 -27 25 -14 27 -21 30 -85 36 -38 3 -77 9 -86 12 -23 9 -38 51 -36 101 4 64 -6 84 -34 77 -12 -3 -26 -1 -29 5 -10 16 -93 14 -99 -3 -4 -10 -43 -15 -155 -21 -147 -7 -152 -6 -229 20 -138 48 -249 111 -376 214 -39 32 -90 64 -111 71 -31 10 -107 11 -328 6 -224 -6 -292 -5 -304 5 -11 9 -85 11 -324 5 -233 -5 -310 -4 -316 5 -5 9 -87 11 -335 6 -213 -4 -331 -2 -335 4 -3 6 -67 10 -152 10 -175 1 -201 3 -314 24 l-88 17 4 53 c2 30 7 58 11 64 3 6 8 33 10 60 1 27 6 55 10 61 3 6 5 23 4 38 -2 15 1 34 6 42 5 8 10 92 10 187 0 94 3 175 8 179 10 11 9 52 -3 59 -7 4 -8 45 -4 115 4 59 4 116 0 126 -8 20 -20 178 -20 269 -1 42 4 69 17 88 17 27 18 27 142 27 69 0 133 -4 143 -10 9 -5 67 -30 127 -55 61 -26 135 -57 165 -70 30 -13 96 -40 145 -59 50 -19 140 -56 200 -81 61 -26 178 -74 260 -107 83 -33 225 -91 316 -128 169 -70 225 -92 404 -160 55 -21 171 -65 259 -99 184 -71 292 -105 312 -97 7 3 16 0 20 -5 4 -8 116 -9 364 -4 262 6 359 5 364 -4 9 -14 239 -15 266 -1 10 5 20 20 24 34 4 17 17 28 41 36 103 34 157 170 106 268 -47 88 -216 324 -283 395 -16 16 -28 31 -28 33 0 3 -34 54 -75 113 -62 90 -75 116 -75 148 0 48 11 59 140 142 180 116 339 188 458 207 45 7 46 5 42 -44 -2 -31 19 -119 37 -157 9 -16 29 -44 45 -61 18 -19 45 -73 69 -135 21 -57 46 -107 55 -112 8 -5 45 -68 80 -140 36 -73 69 -133 73 -135 5 -2 49 17 99 41 61 31 98 43 116 40 14 -3 34 -2 43 2 10 4 52 7 94 6 47 -2 79 2 83 8 9 14 103 14 111 1 3 -5 26 -10 51 -10 58 0 98 -18 156 -69 58 -51 82 -112 100 -248 l13 -98 93 -3 c103 -3 100 -6 77 72 -16 54 -20 116 -7 116 5 0 20 -44 33 -97 l25 -98 37 -2 c51 -3 59 17 63 151 1 62 6 120 10 130 4 10 4 53 1 97 -4 52 -3 80 5 85 7 5 9 33 5 85 -4 52 -3 81 5 85 7 4 9 30 5 75 -4 42 -2 71 4 75 6 3 9 34 8 68 -1 35 1 68 5 74 4 7 6 44 5 82 -1 39 1 73 4 77 4 3 7 29 7 56 l0 49 48 -7 c26 -4 67 -9 92 -10z m1536 -131 c37 -18 84 -80 84 -111 0 -12 5 -25 10 -28 19 -11 10 -40 -30 -95 -55 -77 -74 -115 -66 -135 4 -12 14 -16 31 -13 20 4 23 2 14 -8 -6 -7 -17 -10 -25 -7 -11 4 -15 0 -12 -13 2 -15 -4 -20 -32 -22 -19 -2 -39 -8 -44 -13 -17 -16 -36 -10 -46 16 -12 32 -40 32 -70 0 -32 -34 -78 -31 -99 6 -13 24 -13 29 2 53 24 37 82 37 99 1 14 -31 58 -35 58 -5 0 23 -20 70 -31 70 -18 0 -73 57 -87 90 -16 38 -21 89 -10 97 5 2 8 12 8 21 0 26 50 79 95 102 44 22 95 20 151 -6z m288 14 c22 1 45 -3 52 -9 8 -7 28 -9 50 -5 21 4 41 3 49 -4 7 -6 32 -10 56 -9 82 1 124 -7 121 -26 -2 -9 2 -23 8 -30 7 -8 9 -19 5 -25 -3 -5 -3 -16 1 -22 5 -7 9 -19 10 -28 2 -8 5 -26 8 -40 3 -14 8 -45 11 -70 4 -25 11 -50 16 -56 5 -6 7 -19 3 -28 -3 -9 -1 -22 5 -30 6 -7 8 -16 5 -19 -4 -3 -3 -14 1 -24 5 -10 10 -27 11 -38 1 -11 5 -33 9 -50 3 -16 6 -40 6 -52 -1 -12 4 -25 9 -28 6 -4 8 -11 4 -16 -3 -6 -3 -18 1 -27 4 -9 9 -34 10 -55 2 -21 8 -44 14 -51 6 -7 8 -15 5 -18 -8 -9 17 -99 48 -168 36 -82 95 -140 141 -140 39 0 91 51 82 80 -3 10 -1 21 5 25 13 8 13 52 0 60 -5 3 -9 20 -9 38 1 18 -2 46 -5 62 -4 17 -8 47 -11 68 -2 21 -7 42 -10 48 -4 5 -8 32 -10 60 -3 29 -9 57 -15 64 -5 6 -7 15 -4 18 4 3 3 14 -1 24 -9 20 -11 30 -20 87 -3 21 -9 46 -14 55 -5 9 -11 39 -14 66 -3 28 -9 65 -13 83 -17 81 50 189 131 212 25 7 47 16 50 19 5 9 154 5 180 -4 11 -4 48 -20 82 -36 49 -23 66 -37 80 -66 13 -28 14 -38 5 -41 -24 -8 -71 -57 -81 -85 -14 -36 -14 -84 -1 -92 6 -4 8 -15 5 -26 -4 -10 -3 -24 1 -31 8 -13 14 -41 15 -70 0 -10 4 -20 9 -23 5 -3 7 -12 4 -19 -3 -8 0 -17 5 -21 6 -3 9 -10 7 -14 -3 -4 0 -25 6 -47 6 -21 10 -49 9 -61 -1 -11 2 -24 8 -27 6 -4 8 -20 5 -35 -3 -16 -1 -32 5 -35 6 -4 8 -20 5 -35 -3 -16 -1 -31 4 -35 6 -3 8 -23 5 -45 -3 -23 -1 -41 6 -45 14 -9 14 -83 0 -91 -6 -4 -9 -21 -8 -39 3 -36 -23 -101 -53 -133 -18 -19 -39 -29 -128 -60 -26 -10 -191 -10 -197 -1 -2 5 -15 8 -26 7 -12 -1 -35 3 -50 9 -16 7 -33 12 -39 12 -32 0 -167 95 -168 118 -1 4 -11 20 -24 36 l-24 28 0 -41 c0 -22 3 -43 8 -46 4 -3 6 -14 3 -25 -3 -11 -1 -26 5 -33 13 -16 3 -67 -14 -74 -8 -3 -21 0 -29 7 -9 7 -27 10 -45 7 -17 -4 -32 -2 -36 4 -4 7 -23 9 -45 6 -22 -3 -42 -1 -45 5 -4 6 -24 8 -46 5 -46 -6 -100 16 -91 39 3 8 0 20 -6 28 -6 7 -8 15 -5 18 7 8 -17 127 -27 134 -4 2 -6 11 -2 19 3 9 0 21 -6 29 -6 7 -8 16 -4 19 3 4 1 13 -6 20 -6 8 -9 21 -5 30 3 8 1 18 -5 22 -6 3 -8 17 -5 30 3 12 1 26 -5 29 -5 4 -8 13 -4 21 3 8 2 23 -2 33 -5 9 -7 24 -6 34 1 9 -3 19 -9 23 -6 3 -8 11 -4 16 3 5 0 16 -6 24 -6 8 -9 19 -5 25 3 5 3 16 -1 22 -5 7 -9 19 -10 28 -9 56 -14 85 -21 104 -4 11 -6 28 -4 38 1 9 -3 19 -8 23 -6 3 -8 19 -5 34 4 16 1 32 -5 35 -6 4 -9 12 -5 17 3 6 2 18 -2 27 -4 9 -8 24 -10 32 -9 46 -14 80 -19 119 -3 24 -8 48 -12 54 -11 18 -10 61 1 70 6 4 22 4 36 0 14 -4 43 -6 64 -5z m1974 -1 c6 -5 16 -6 21 -3 5 3 22 -1 37 -9 16 -8 35 -15 42 -15 11 0 87 -38 179 -88 13 -8 28 -25 33 -38 5 -13 13 -24 17 -24 5 0 9 -14 10 -32 1 -17 7 -36 13 -42 5 -5 10 -20 10 -31 0 -23 -34 -100 -49 -109 -5 -3 -26 11 -47 31 -44 41 -132 83 -180 86 -18 2 -36 6 -40 10 -11 11 -92 8 -99 -3 -4 -6 -10 -8 -14 -5 -15 9 -83 -34 -99 -62 -10 -18 -16 -60 -18 -118 -4 -133 -7 -129 87 -122 47 3 81 1 85 -5 3 -5 22 -8 43 -7 20 1 43 -1 52 -5 10 -4 23 -6 30 -5 8 1 21 0 29 -3 8 -3 42 -13 75 -23 86 -25 131 -50 191 -107 35 -33 59 -66 70 -97 9 -25 19 -53 22 -61 12 -34 6 -126 -10 -162 -10 -20 -18 -41 -18 -46 0 -27 -105 -87 -181 -102 -30 -6 -61 -14 -69 -17 -25 -9 -211 -9 -217 0 -3 4 -17 7 -31 6 -15 -1 -34 1 -42 4 -8 3 -42 13 -75 22 -33 9 -89 33 -124 53 -35 20 -72 42 -83 48 -27 16 -88 76 -88 87 0 5 -20 36 -45 68 -25 33 -45 63 -45 67 0 7 -17 54 -55 147 -5 11 -8 23 -7 26 1 4 -3 22 -9 40 -9 32 -13 276 -5 329 10 63 57 139 135 217 30 31 99 68 146 79 17 4 35 11 42 16 7 5 17 7 22 3 6 -3 17 -2 26 2 18 10 216 10 233 0z m962 0 c8 -3 38 -13 67 -22 36 -11 64 -29 92 -60 23 -25 41 -48 41 -52 0 -5 -14 -19 -31 -33 -17 -14 -37 -37 -45 -52 -16 -30 -19 -114 -4 -123 5 -3 7 -12 3 -20 -3 -8 -2 -23 2 -32 5 -10 7 -25 6 -35 -1 -9 2 -19 8 -22 5 -3 7 -15 4 -25 -3 -10 0 -22 5 -25 6 -3 8 -15 5 -25 -3 -10 0 -22 6 -25 5 -4 8 -13 5 -20 -3 -8 -1 -17 5 -21 6 -3 8 -17 5 -30 -3 -12 -1 -26 5 -30 6 -3 8 -17 5 -30 -3 -12 -1 -26 5 -29 5 -4 8 -13 4 -21 -3 -8 -2 -23 2 -32 5 -10 7 -25 6 -35 -1 -9 3 -19 9 -23 6 -3 8 -11 5 -16 -4 -5 -3 -15 2 -21 4 -7 9 -22 10 -33 2 -24 9 -57 21 -107 5 -20 7 -39 4 -42 -2 -3 1 -13 9 -22 8 -10 12 -20 9 -23 -3 -3 31 -7 75 -9 85 -3 106 -12 98 -41 -3 -10 0 -22 6 -25 31 -20 6 -28 -78 -24 l-89 3 3 -25 c1 -14 4 -25 5 -25 1 0 3 -13 5 -29 2 -16 7 -36 11 -45 4 -9 6 -23 5 -33 -1 -9 3 -19 8 -22 6 -4 8 -13 4 -21 -3 -9 0 -21 6 -29 15 -18 4 -26 -41 -26 -28 0 -50 9 -85 36 -27 20 -59 42 -73 48 -14 6 -41 23 -60 38 -19 15 -57 37 -85 49 -27 12 -60 29 -72 39 -12 9 -67 32 -123 51 -86 29 -100 37 -98 54 3 17 12 21 58 23 62 4 87 17 69 38 -6 7 -8 18 -4 24 4 6 1 17 -5 25 -6 8 -9 19 -5 25 3 5 3 16 -1 22 -5 7 -9 32 -11 56 -1 24 -7 50 -12 56 -6 7 -8 16 -5 19 4 3 3 14 -1 24 -5 10 -7 25 -6 35 1 9 -3 19 -8 22 -6 4 -8 13 -4 21 3 9 0 21 -6 29 -6 7 -9 21 -5 29 3 9 3 21 -1 28 -4 6 -9 29 -11 51 -1 22 -7 45 -12 50 -6 6 -8 17 -5 24 3 8 0 20 -6 28 -6 7 -8 16 -5 19 4 3 3 14 -1 24 -4 10 -9 27 -11 38 -2 11 -6 34 -9 50 -20 118 -4 245 34 272 12 8 21 21 21 28 0 8 16 21 35 29 19 8 35 20 35 26 0 7 8 9 19 5 11 -3 22 -2 24 2 6 9 124 9 147 0z m-9705 -2648 c4 -5 17 -9 28 -8 25 2 34 -1 129 -44 37 -16 75 -38 84 -48 24 -27 38 -24 55 13 8 18 23 37 35 43 11 6 28 18 37 27 9 9 25 14 36 11 10 -3 22 0 25 6 9 13 90 15 114 2 9 -5 32 -15 50 -21 20 -8 32 -19 32 -31 0 -10 5 -21 11 -25 8 -5 10 -32 5 -90 -4 -53 -2 -85 4 -89 6 -4 8 -21 4 -40 -3 -19 -3 -39 1 -45 4 -7 9 -30 10 -52 2 -21 8 -45 14 -52 6 -7 8 -16 5 -19 -3 -3 -2 -11 2 -18 4 -7 9 -24 10 -37 2 -13 7 -29 13 -36 6 -7 13 -28 15 -47 6 -45 31 -114 56 -154 11 -18 20 -35 20 -38 0 -3 -28 -3 -62 0 -35 3 -83 5 -107 4 -24 -1 -49 3 -56 9 -8 7 -28 8 -49 4 -23 -4 -42 -2 -51 6 -10 8 -30 10 -58 6 -62 -9 -74 7 -77 106 -1 15 -6 30 -11 33 -5 4 -6 17 -3 30 3 13 2 30 -2 37 -5 7 -7 23 -6 35 2 11 -2 24 -7 28 -6 3 -8 17 -5 31 3 13 1 30 -5 38 -6 7 -9 21 -5 30 3 9 1 22 -5 30 -6 7 -8 21 -5 30 4 10 -3 25 -17 40 -61 59 -167 54 -241 -13 -32 -30 -81 -133 -83 -179 -1 -18 -5 -36 -9 -39 -10 -10 -7 -201 3 -208 5 -3 7 -20 4 -39 -3 -20 -1 -36 6 -40 6 -4 8 -18 5 -31 -3 -12 -1 -26 5 -29 5 -4 8 -13 5 -20 -3 -8 -1 -17 5 -20 6 -4 8 -13 5 -20 -3 -8 0 -17 5 -21 6 -3 9 -10 6 -15 -6 -10 17 -78 49 -145 13 -27 32 -67 42 -88 10 -21 27 -49 39 -61 12 -13 25 -31 28 -40 4 -9 11 -16 17 -16 5 0 10 -6 10 -14 0 -15 47 -54 97 -80 67 -34 134 -12 170 57 13 25 17 64 19 176 1 142 2 145 25 154 62 23 259 -45 279 -98 5 -12 14 -26 20 -30 13 -8 55 -87 52 -98 -1 -4 3 -17 9 -28 8 -15 7 -29 -2 -52 -30 -77 -49 -114 -66 -128 -25 -23 -141 -75 -183 -84 -19 -4 -40 -12 -47 -17 -7 -5 -26 -7 -43 -3 -19 4 -36 2 -45 -5 -16 -13 -94 -11 -113 3 -7 5 -32 7 -57 4 -27 -4 -47 -2 -51 4 -3 6 -15 8 -26 6 -11 -3 -28 -2 -37 3 -9 4 -66 24 -128 43 -125 40 -182 76 -306 193 -50 48 -87 95 -116 147 -23 41 -46 77 -52 79 -6 2 -12 15 -13 28 -3 26 -44 157 -54 175 -4 5 -7 16 -8 25 -2 8 -5 29 -9 45 -16 85 -22 299 -10 385 12 88 16 102 31 125 9 14 14 28 11 31 -3 3 8 24 24 47 16 22 29 44 29 49 0 5 14 21 30 35 17 13 30 30 30 36 0 17 179 102 206 99 12 -2 25 2 29 7 3 6 35 11 70 11 35 0 67 -5 70 -11z m1361 0 c3 -6 17 -9 30 -6 14 2 27 0 30 -4 3 -5 13 -9 22 -9 30 0 171 -74 175 -92 8 -29 33 -21 56 17 21 37 70 72 111 81 14 3 33 9 42 15 24 12 115 12 123 -2 4 -5 12 -8 18 -6 7 2 39 -12 72 -30 33 -19 66 -37 73 -41 8 -4 20 -22 27 -40 12 -27 12 -32 0 -32 -22 0 -79 -58 -81 -82 -1 -13 -5 -31 -9 -42 -5 -11 -3 -26 3 -37 7 -10 9 -25 6 -34 -3 -8 -3 -23 1 -32 4 -10 9 -38 11 -62 2 -24 8 -49 14 -56 5 -6 7 -15 3 -18 -3 -4 0 -13 6 -21 7 -8 10 -20 6 -26 -4 -6 -1 -17 5 -25 6 -8 9 -19 5 -25 -3 -5 -3 -16 2 -22 4 -7 9 -22 10 -33 7 -85 14 -130 22 -138 5 -5 7 -16 4 -23 -3 -8 0 -20 6 -28 6 -7 9 -20 5 -29 -3 -8 0 -18 5 -22 6 -3 9 -11 5 -16 -3 -6 -2 -18 2 -27 7 -17 8 -22 18 -77 4 -16 8 -41 11 -55 3 -14 6 -37 5 -52 0 -15 4 -29 9 -33 6 -3 8 -12 4 -20 -3 -9 0 -22 7 -30 13 -16 -15 -16 -155 1 -100 11 -144 16 -180 18 -22 1 -48 6 -57 10 -10 4 -25 6 -33 2 -15 -5 -19 8 -16 46 1 9 -3 19 -9 23 -5 3 -7 17 -4 30 3 12 1 26 -6 30 -6 4 -8 15 -5 25 3 10 1 21 -5 25 -5 3 -7 17 -4 30 3 12 1 26 -4 29 -6 3 -8 15 -5 25 3 10 0 22 -6 25 -5 4 -8 13 -4 21 3 9 0 21 -6 29 -6 7 -8 16 -5 19 4 3 3 14 -1 24 -4 10 -7 28 -6 40 1 11 -3 24 -9 28 -5 3 -8 11 -4 16 3 6 3 18 -1 27 -4 9 -9 37 -11 61 -2 24 -8 49 -14 56 -5 6 -7 15 -4 18 4 3 3 14 -1 24 -5 10 -7 25 -6 35 1 9 -3 19 -9 23 -6 3 -8 11 -4 16 3 6 2 18 -2 27 -8 20 -14 50 -15 74 0 10 -4 20 -10 23 -5 4 -9 15 -9 26 0 27 -27 78 -59 112 -56 61 -124 74 -166 32 -14 -13 -25 -30 -26 -37 -5 -62 -3 -140 3 -144 4 -3 5 -16 2 -29 -3 -12 -1 -26 5 -29 5 -4 8 -13 4 -21 -3 -9 0 -22 7 -30 6 -8 9 -19 5 -25 -4 -6 -4 -19 0 -28 4 -9 9 -37 11 -61 2 -24 8 -49 14 -56 5 -6 7 -15 4 -18 -4 -3 -3 -14 1 -24 5 -10 7 -22 6 -27 -1 -5 1 -16 5 -25 4 -9 8 -23 10 -31 1 -8 5 -27 8 -43 3 -15 8 -39 11 -55 3 -15 6 -39 5 -54 0 -15 4 -29 9 -32 5 -3 7 -15 4 -25 -3 -10 0 -22 6 -25 5 -4 8 -13 4 -21 -3 -9 0 -22 7 -30 6 -8 9 -18 6 -23 -3 -5 -1 -24 5 -43 11 -36 15 -57 22 -102 l4 -27 -66 6 c-36 3 -84 8 -106 10 -98 11 -143 15 -179 14 -22 0 -45 5 -53 11 -7 6 -21 9 -31 7 -11 -3 -18 1 -19 11 -2 29 -12 83 -19 105 -11 31 -15 57 -15 88 0 15 -4 30 -9 33 -6 4 -7 17 -4 30 3 12 1 26 -6 30 -6 4 -8 15 -5 26 4 10 3 24 -1 30 -3 6 -8 31 -10 56 -2 25 -8 51 -14 58 -5 6 -7 15 -4 18 4 3 3 14 -1 24 -5 10 -7 22 -6 27 1 5 -1 16 -5 25 -8 18 -13 45 -17 78 -1 12 -5 25 -9 29 -4 4 -5 17 -2 29 3 13 1 26 -5 29 -5 4 -8 13 -4 21 3 8 2 23 -2 33 -4 9 -8 53 -8 97 0 94 17 143 71 199 37 38 141 96 174 96 9 0 20 5 23 10 8 14 152 13 161 -1z m999 0 c5 -7 25 -8 55 -4 32 4 50 3 55 -5 4 -7 21 -9 45 -5 24 4 41 2 45 -5 5 -8 20 -9 42 -5 21 4 40 2 49 -6 8 -7 28 -9 48 -6 25 4 39 1 50 -12 9 -10 13 -20 10 -24 -4 -3 -3 -14 1 -24 5 -10 7 -25 6 -35 -1 -9 3 -19 8 -22 6 -4 8 -13 4 -21 -3 -9 0 -22 7 -30 6 -8 9 -19 5 -25 -4 -6 -4 -19 0 -28 4 -9 9 -37 11 -61 2 -24 8 -49 14 -56 5 -6 7 -15 4 -18 -4 -3 -3 -14 1 -24 5 -10 7 -22 6 -27 -1 -4 3 -14 10 -22 6 -7 8 -18 4 -24 -3 -5 -3 -16 1 -22 5 -7 9 -19 10 -28 2 -8 5 -28 9 -45 3 -16 6 -42 5 -57 0 -15 4 -29 9 -32 5 -3 7 -15 4 -25 -3 -10 0 -22 6 -25 5 -4 8 -13 5 -20 -3 -8 0 -17 5 -21 6 -3 9 -11 5 -16 -3 -5 -1 -15 4 -22 6 -7 18 -43 28 -80 21 -85 61 -149 107 -170 56 -27 95 -18 118 26 15 26 21 155 8 162 -4 3 -6 19 -3 34 3 16 1 31 -4 35 -6 3 -8 15 -5 25 3 10 0 22 -6 25 -6 4 -8 18 -5 31 3 12 1 26 -4 29 -6 3 -8 15 -5 25 3 10 0 22 -5 25 -6 3 -8 15 -5 25 3 10 0 22 -6 25 -5 4 -8 13 -4 21 3 9 0 21 -6 29 -6 7 -8 16 -5 19 4 3 3 14 -1 24 -4 10 -9 37 -11 61 -2 24 -7 48 -11 55 -4 7 -6 22 -5 34 2 11 -2 24 -7 28 -6 3 -8 17 -5 30 3 12 1 26 -5 29 -29 18 2 137 48 190 22 24 92 60 113 57 9 -1 19 3 23 9 8 13 132 13 140 0 4 -6 14 -10 23 -9 40 6 182 -95 182 -129 0 -4 -15 -15 -33 -25 -18 -10 -39 -28 -46 -40 -16 -24 -24 -144 -10 -152 4 -3 6 -12 2 -20 -3 -9 0 -21 6 -29 6 -7 8 -16 4 -19 -3 -4 -1 -13 6 -20 6 -8 9 -21 5 -30 -3 -8 0 -18 5 -22 6 -3 9 -11 5 -16 -3 -6 -2 -18 2 -27 4 -9 6 -27 5 -39 -1 -11 2 -24 7 -27 6 -3 8 -15 5 -25 -3 -10 0 -22 6 -25 5 -4 8 -13 4 -21 -3 -9 0 -21 6 -29 6 -7 8 -16 5 -19 -4 -3 -3 -14 1 -24 12 -27 17 -77 18 -193 2 -98 0 -109 -28 -168 -16 -34 -33 -62 -38 -62 -4 0 -26 -11 -48 -25 -64 -41 -184 -49 -319 -21 -44 9 -155 64 -176 87 -9 10 -23 19 -31 19 -7 0 -13 4 -13 9 0 17 -53 90 -62 85 -11 -7 -10 -41 1 -48 5 -3 7 -15 4 -26 -3 -11 0 -26 6 -34 6 -7 9 -21 5 -30 -3 -9 -1 -22 5 -30 6 -7 9 -21 5 -29 -6 -16 -43 -16 -139 -2 -62 10 -121 16 -155 16 -47 0 -68 22 -75 78 -4 25 -9 53 -12 61 -3 8 -5 25 -4 37 1 11 -2 24 -8 27 -6 4 -8 13 -4 21 3 9 0 21 -6 29 -6 7 -8 16 -4 19 3 4 0 13 -6 21 -7 8 -10 19 -7 24 3 5 1 24 -5 43 -6 19 -12 52 -15 74 -3 22 -7 47 -11 55 -3 8 -5 25 -4 37 1 11 -2 24 -8 27 -6 4 -8 13 -4 21 3 9 0 22 -7 30 -6 8 -9 19 -5 25 4 6 4 19 0 28 -4 9 -9 34 -10 55 -2 21 -8 44 -14 51 -6 7 -8 16 -5 19 4 3 3 14 -1 24 -5 10 -7 25 -6 35 1 9 -3 19 -9 23 -6 3 -8 11 -4 16 3 5 1 16 -5 23 -6 7 -9 20 -5 29 3 8 1 18 -5 21 -6 4 -8 20 -5 35 3 16 1 31 -4 35 -6 3 -8 15 -5 25 3 10 0 22 -5 25 -6 3 -8 15 -5 25 3 10 0 22 -5 25 -6 3 -8 15 -5 25 3 10 0 22 -6 25 -6 4 -11 14 -11 22 0 17 45 19 55 3z m2881 0 c4 -7 25 -9 59 -4 35 4 55 2 60 -5 4 -7 21 -9 45 -5 25 4 41 2 45 -5 5 -8 22 -10 50 -5 28 4 46 2 50 -5 5 -8 22 -10 50 -6 51 8 50 10 70 -114 3 -19 6 -49 6 -67 -1 -18 3 -34 8 -37 5 -4 7 -15 4 -26 -3 -11 0 -27 7 -35 6 -8 9 -19 5 -25 -4 -6 -3 -19 1 -28 4 -9 9 -26 10 -37 4 -31 12 -77 18 -105 2 -14 7 -41 11 -60 3 -19 8 -48 11 -65 3 -16 5 -42 5 -57 -1 -15 4 -30 9 -33 6 -4 8 -15 5 -26 -4 -10 -3 -24 1 -31 4 -6 8 -24 9 -39 4 -46 63 -159 104 -199 68 -66 109 -65 142 6 16 33 19 53 14 82 -4 20 -9 50 -11 66 -4 36 -32 121 -51 160 -9 16 -11 32 -6 37 8 8 142 15 168 8 6 -1 15 -3 20 -4 6 0 30 -12 54 -26 24 -13 54 -30 67 -37 14 -8 37 -42 55 -80 17 -37 35 -75 40 -84 12 -24 11 -135 -1 -143 -6 -4 -10 -12 -9 -18 4 -24 -43 -108 -65 -116 -12 -5 -28 -16 -35 -25 -7 -9 -21 -16 -30 -16 -9 0 -21 -4 -27 -10 -20 -20 -206 -12 -228 10 -6 6 -16 10 -24 10 -7 0 -28 11 -46 25 -18 14 -37 25 -43 25 -10 0 -48 38 -54 55 -8 22 -54 85 -62 85 -5 0 -5 -10 -1 -22 4 -13 7 -33 6 -45 -1 -12 3 -25 9 -28 5 -4 7 -15 4 -26 -4 -10 -3 -24 2 -31 4 -7 8 -25 8 -40 0 -26 -1 -26 -50 -21 -27 2 -63 7 -80 9 -80 12 -113 16 -145 15 -19 0 -40 5 -47 11 -7 5 -19 8 -27 5 -10 -4 -13 -1 -10 7 3 8 1 17 -5 21 -6 3 -8 17 -5 30 3 12 1 26 -5 29 -5 4 -8 13 -4 21 3 8 2 23 -2 33 -5 9 -7 24 -6 34 1 9 -3 19 -8 22 -6 4 -8 13 -4 21 3 9 0 21 -6 29 -6 7 -8 16 -5 19 4 3 3 14 -1 24 -4 10 -9 27 -11 38 -2 11 -5 27 -7 35 -2 8 -7 39 -12 68 -4 29 -11 55 -16 58 -5 2 -6 18 -3 33 4 16 1 32 -5 35 -6 4 -9 12 -6 17 4 5 3 15 -2 22 -4 6 -9 21 -10 32 -1 11 -4 34 -8 50 -3 17 -6 38 -6 47 0 10 -5 20 -10 23 -5 4 -6 17 -3 30 3 12 1 26 -4 29 -6 3 -8 15 -5 25 3 10 0 22 -5 25 -6 3 -8 15 -5 25 3 10 0 22 -6 25 -6 4 -8 20 -5 35 4 16 1 32 -5 35 -6 4 -9 12 -5 17 3 6 3 18 -1 27 -4 9 -8 34 -10 54 -2 20 -7 43 -11 49 -4 7 -8 25 -9 41 -2 21 2 28 16 28 10 0 21 -5 25 -11z m1499 1 c3 -5 16 -10 28 -10 12 0 50 -13 84 -30 47 -23 66 -39 81 -69 20 -38 20 -40 3 -46 -24 -7 -54 -41 -56 -63 -1 -9 -5 -24 -8 -32 -7 -15 -3 -72 7 -125 10 -47 12 -57 20 -108 5 -26 12 -50 17 -53 5 -3 6 -16 3 -29 -3 -12 -1 -26 5 -30 6 -3 9 -11 5 -16 -3 -6 -2 -18 2 -27 4 -9 9 -26 10 -37 1 -11 5 -33 9 -50 3 -16 6 -38 6 -47 0 -10 5 -20 10 -23 5 -4 6 -17 3 -30 -3 -12 -1 -26 5 -30 6 -3 9 -11 5 -16 -3 -6 -2 -18 2 -27 4 -9 6 -27 5 -39 -1 -11 2 -24 7 -27 6 -3 8 -15 5 -25 -3 -10 0 -22 6 -25 5 -4 8 -13 4 -21 -3 -8 -2 -23 2 -32 4 -10 8 -35 10 -55 2 -20 7 -43 11 -50 4 -6 8 -22 9 -35 1 -23 -1 -23 -65 -18 -36 4 -81 8 -100 11 -65 8 -135 15 -180 18 -69 5 -105 20 -105 42 0 10 -4 25 -8 32 -5 6 -5 17 -2 22 3 6 3 16 -2 23 -8 13 -13 45 -13 89 0 15 -4 29 -9 32 -5 3 -7 15 -4 25 3 10 0 22 -6 25 -5 4 -8 13 -4 21 3 9 0 21 -6 29 -6 7 -8 16 -5 19 4 3 3 14 -1 24 -4 10 -9 25 -10 33 -2 8 -8 29 -13 47 -6 17 -8 34 -5 37 3 2 1 11 -3 18 -9 14 -15 43 -14 75 0 12 -5 25 -11 28 -5 4 -7 15 -4 25 3 10 1 21 -5 25 -6 4 -8 15 -5 26 4 10 3 24 -2 31 -4 7 -9 24 -10 38 -1 14 -5 48 -8 75 -11 99 -8 170 10 212 20 51 109 136 142 136 13 0 26 3 29 8 7 12 111 11 119 -1z m991 -1 c3 -6 19 -9 35 -5 15 3 31 1 34 -5 4 -5 14 -9 23 -8 19 2 31 -2 111 -37 29 -13 57 -22 61 -19 4 3 10 -2 14 -10 3 -8 9 -15 14 -15 20 0 90 -79 97 -108 3 -18 11 -34 16 -37 29 -19 -20 -167 -64 -190 -21 -10 -25 -11 -21 0 6 15 -64 95 -83 95 -7 0 -13 5 -13 10 0 6 -24 21 -52 34 -43 20 -67 23 -133 22 -44 -1 -90 -7 -102 -14 -27 -15 -66 -69 -69 -96 -1 -12 -3 -21 -4 -21 -6 0 -4 -197 2 -201 4 -3 5 -16 2 -29 -3 -12 -1 -26 5 -29 5 -4 8 -13 5 -20 -3 -8 -1 -17 5 -21 6 -3 11 -16 11 -29 0 -72 128 -326 164 -326 7 0 20 -10 28 -21 19 -29 90 -34 114 -8 19 21 30 154 13 164 -5 4 -7 15 -4 26 4 10 3 24 -1 31 -4 7 -9 23 -10 36 -2 13 -8 30 -14 37 -23 27 130 32 193 7 16 -7 32 -12 36 -12 18 0 95 -77 108 -109 40 -94 1 -219 -80 -261 -94 -50 -146 -62 -257 -61 -131 1 -178 9 -285 49 -132 49 -147 56 -178 84 -16 16 -35 28 -42 28 -13 0 -41 28 -59 59 -6 10 -34 51 -61 92 -28 41 -56 94 -64 118 -7 25 -18 56 -23 70 -11 28 -13 33 -23 96 -8 47 -9 259 -2 295 11 53 59 174 73 185 8 6 20 21 27 35 19 37 179 116 229 111 14 -1 29 3 33 8 9 15 182 14 191 0z m1210 0 c3 -6 15 -8 26 -6 11 3 28 2 37 -3 34 -19 147 -62 165 -63 23 -2 102 -71 121 -106 7 -15 15 -59 16 -97 3 -96 -32 -166 -56 -112 -6 13 -46 40 -100 67 -85 43 -95 45 -180 47 -105 3 -139 -9 -173 -61 -21 -29 -24 -47 -25 -126 0 -116 3 -119 128 -119 49 1 101 -2 115 -5 14 -3 39 -7 55 -11 55 -10 60 -11 80 -19 114 -45 142 -58 169 -78 17 -13 38 -26 47 -30 9 -3 23 -18 31 -34 8 -15 27 -49 41 -74 14 -26 24 -48 22 -51 -3 -2 0 -20 5 -39 7 -24 7 -51 -2 -89 -10 -47 -21 -64 -74 -118 -34 -34 -70 -62 -80 -62 -11 0 -32 -7 -49 -16 -36 -19 -167 -37 -215 -29 -19 3 -56 7 -81 9 -74 7 -239 67 -304 111 -33 22 -69 45 -80 51 -11 6 -26 23 -33 37 -7 14 -23 34 -35 44 -12 10 -35 43 -51 73 -16 30 -35 62 -42 71 -8 8 -14 21 -14 28 0 7 -5 22 -12 34 -6 12 -13 35 -15 51 -2 16 -8 34 -13 41 -5 7 -7 15 -4 18 4 3 3 14 -1 24 -22 49 -24 283 -4 318 4 6 14 36 24 67 10 31 26 65 36 74 11 9 19 22 19 29 0 6 12 23 28 37 32 29 166 98 193 98 10 0 21 4 24 10 3 5 19 7 34 4 16 -4 32 -1 35 5 9 15 182 15 192 0z m1010 0 c3 -6 20 -9 38 -6 17 2 38 1 46 -4 22 -12 152 -53 172 -55 19 -1 48 -21 61 -41 4 -7 13 -13 20 -13 12 0 87 -69 87 -81 0 -4 15 -33 33 -66 62 -110 69 -195 23 -275 -20 -34 -101 -128 -111 -128 -11 0 -272 -179 -285 -196 -33 -41 -38 -60 -30 -105 12 -63 20 -80 56 -117 27 -28 41 -34 84 -37 48 -4 54 -1 86 31 25 24 33 40 29 53 -3 11 -1 22 5 26 5 3 10 19 10 35 0 16 -5 32 -10 35 -6 4 -8 15 -5 25 3 10 1 21 -5 25 -6 3 -8 11 -4 16 3 5 0 17 -7 25 -21 25 2 33 99 35 89 1 95 0 129 -28 60 -48 76 -77 81 -142 6 -77 -11 -123 -58 -164 -90 -77 -227 -97 -430 -63 -53 9 -191 66 -237 98 -26 18 -57 38 -68 43 -20 10 -119 192 -122 224 -10 90 -1 124 60 228 13 22 59 63 71 63 13 0 176 111 176 120 0 6 8 14 18 18 35 14 114 113 117 147 0 6 4 16 9 23 4 7 3 19 -3 26 -6 7 -9 21 -5 30 9 24 -55 83 -100 92 -54 10 -110 -10 -138 -49 -19 -26 -23 -45 -22 -97 0 -36 4 -85 9 -109 6 -32 5 -42 -3 -37 -7 4 -26 0 -44 -8 -52 -23 -124 -15 -200 22 -38 18 -68 37 -68 43 0 5 -9 29 -20 51 -26 53 -26 54 10 125 29 58 34 62 113 101 101 49 118 56 139 53 9 -1 19 3 23 9 8 14 162 13 171 -1z m-5701 -60 c8 -12 16 -56 16 -86 -1 -12 4 -25 9 -28 6 -3 7 -17 4 -30 -3 -12 -1 -26 5 -29 5 -4 8 -13 4 -21 -3 -9 0 -22 7 -30 6 -8 9 -19 5 -25 -4 -6 -1 -17 5 -25 6 -8 9 -19 5 -25 -4 -6 -1 -17 5 -25 6 -8 9 -19 5 -25 -3 -5 -3 -16 1 -22 5 -7 9 -19 10 -28 3 -16 10 -54 19 -98 3 -15 6 -39 5 -54 0 -15 4 -30 10 -33 6 -3 7 -17 4 -30 -3 -12 -1 -26 5 -30 6 -3 9 -11 5 -16 -3 -6 -3 -18 1 -27 4 -9 9 -37 11 -61 2 -24 8 -49 14 -56 5 -6 7 -15 4 -18 -4 -3 -3 -14 1 -24 5 -10 7 -25 6 -35 -1 -9 2 -19 8 -22 5 -3 7 -15 4 -25 -3 -10 0 -22 6 -25 5 -4 8 -13 4 -21 -3 -8 -2 -23 2 -33 4 -9 9 -37 11 -61 2 -24 8 -49 14 -56 5 -6 7 -15 4 -18 -4 -3 -3 -14 1 -24 5 -10 7 -22 6 -27 -1 -5 1 -16 5 -25 4 -9 8 -25 10 -36 2 -11 6 -29 8 -40 2 -11 4 -27 5 -35 1 -12 17 -15 89 -13 106 2 147 20 178 80 30 58 27 235 -6 322 -39 104 -124 178 -215 186 -19 2 -44 6 -55 10 -21 7 -21 7 -3 27 20 24 129 78 155 78 9 0 20 5 23 10 8 14 102 13 111 -1 3 -6 19 -9 34 -6 15 3 31 2 36 -2 5 -4 29 -13 54 -20 73 -21 190 -87 205 -117 6 -10 22 -37 37 -59 15 -22 34 -65 43 -95 9 -30 20 -62 24 -70 7 -13 7 -168 1 -180 -2 -3 -4 -9 -5 -15 -4 -28 -46 -105 -80 -145 -40 -48 -74 -69 -158 -95 -29 -9 -59 -19 -67 -22 -8 -3 -25 -5 -37 -4 -13 1 -28 -1 -35 -5 -7 -4 -31 -7 -54 -5 -23 1 -45 -2 -49 -8 -9 -15 -232 -15 -241 0 -5 8 -43 10 -126 7 -66 -3 -121 -1 -124 4 -3 5 -33 8 -67 8 -34 -1 -79 2 -99 5 -33 6 -37 10 -32 30 3 13 1 26 -5 29 -5 4 -8 13 -5 20 3 8 0 17 -6 21 -6 4 -8 15 -5 25 3 10 1 21 -5 25 -5 3 -7 17 -4 30 3 12 1 26 -5 29 -5 4 -8 13 -4 21 3 8 2 23 -2 33 -5 9 -7 27 -6 39 1 11 -2 24 -8 27 -6 4 -8 13 -4 21 3 9 0 21 -6 29 -6 7 -8 16 -5 19 3 3 2 12 -2 19 -5 7 -10 22 -11 33 -2 33 -12 86 -19 107 -9 30 -15 70 -14 100 0 15 -4 29 -9 33 -6 3 -8 12 -4 20 3 9 0 22 -7 30 -6 8 -9 19 -5 25 3 5 3 16 -2 23 -4 6 -9 23 -10 37 -2 14 -3 32 -4 40 -1 8 -5 20 -10 25 -4 6 -10 44 -13 84 -4 40 -10 79 -13 85 -4 6 -6 18 -5 28 2 9 -2 19 -8 23 -5 3 -7 17 -4 30 3 12 1 26 -4 29 -6 3 -8 15 -5 26 3 11 0 26 -6 33 -6 8 -8 17 -5 20 4 3 3 14 -1 24 -4 10 -7 28 -6 40 1 11 -2 24 -8 27 -6 4 -8 13 -5 20 3 8 1 17 -5 20 -6 4 -8 13 -4 21 3 9 0 22 -7 30 -6 8 -9 19 -5 25 9 14 471 14 480 -1z m2710 -1284 c105 -41 118 -51 146 -109 24 -51 24 -54 -6 -120 -21 -47 -32 -58 -73 -77 -53 -24 -67 -28 -135 -36 -30 -3 -53 -1 -60 6 -6 6 -18 11 -26 11 -8 0 -40 12 -70 26 -47 22 -60 35 -79 73 -23 48 -29 96 -13 106 5 3 12 19 16 35 5 25 17 35 63 56 31 14 63 29 71 33 18 9 139 6 166 -4z"/>
<path d="M4610 3680 c-60 -11 -180 -85 -179 -110 0 -8 30 -64 67 -124 l67 -110 55 0 55 0 1 37 c0 20 3 40 7 44 4 3 7 18 7 32 1 33 35 109 63 139 28 31 83 60 74 41 -48 -111 -55 -137 -52 -199 2 -36 3 -68 4 -72 2 -16 56 -21 228 -22 l183 -1 0 28 c0 46 -30 179 -50 217 -31 60 -69 87 -135 99 -64 11 -337 12 -395 1z"/>
<path d="M7030 3980 c-16 -30 14 -72 49 -68 32 4 52 48 31 72 -18 23 -67 20 -80 -4z"/>
</g>
<g id="layer104" fill="#3a7d47" stroke="none">
<path d="M0 2320 l0 -2320 6000 0 6000 0 0 2320 0 2320 -6000 0 -6000 0 0 -2320z m5825 2166 c88 -13 210 -31 270 -40 61 -10 178 -27 260 -40 l150 -22 0 -65 c0 -64 -11 -310 -20 -444 -12 -162 -45 -788 -45 -832 0 -40 4 -50 23 -58 18 -8 23 -21 30 -80 5 -38 10 -75 12 -81 5 -17 490 -18 528 -1 21 9 93 10 290 6 462 -12 776 -19 1032 -24 138 -3 549 -12 915 -21 1397 -32 1311 -28 1325 -47 10 -13 29 -17 91 -17 50 -1 88 -6 104 -15 34 -20 109 -19 131 1 22 20 84 12 93 -11 5 -13 66 -15 439 -15 239 0 436 -2 438 -4 2 -2 3 -36 1 -75 l-4 -71 -436 0 c-425 0 -438 -1 -450 -20 -9 -15 -19 -18 -44 -13 -18 3 -37 12 -41 20 -11 19 -80 16 -117 -5 l-31 -17 2 -196 c2 -173 -1 -208 -21 -298 l-23 -101 -74 0 -73 0 3 138 2 137 -72 3 c-58 2 -73 6 -78 20 -6 20 38 20 -1500 7 -368 -2 -824 -5 -1012 -5 -331 0 -343 -1 -343 -19 0 -49 -6 -51 -126 -51 l-114 0 0 35 0 35 -124 0 c-79 0 -127 -4 -132 -11 -4 -8 -433 -10 -1500 -7 -1180 2 -1496 0 -1506 -10 -6 -6 -31 -12 -54 -12 -24 0 -46 -5 -49 -11 -4 -6 9 -37 29 -69 20 -32 36 -61 36 -64 0 -11 -123 -66 -146 -66 -12 0 -29 11 -38 25 -13 20 -25 25 -59 25 -53 0 -112 16 -132 36 -9 9 -15 33 -15 58 0 24 -3 57 -6 74 -6 28 -9 30 -67 37 -50 5 -63 4 -73 -9 -9 -13 -37 -16 -165 -16 -167 0 -235 11 -333 55 -74 33 -180 101 -268 171 -37 30 -80 59 -95 65 -31 12 -74 13 -1353 34 -677 12 -898 18 -975 30 -55 9 -119 18 -141 22 -23 3 -46 8 -51 12 -6 4 -1 58 13 141 13 74 28 200 35 279 13 166 7 537 -12 737 -11 113 -11 137 2 170 l15 39 143 3 144 3 106 -45 c58 -24 158 -66 221 -91 63 -26 169 -70 235 -97 109 -45 353 -145 650 -265 258 -104 706 -277 814 -314 64 -22 149 -44 189 -49 40 -5 279 -10 530 -11 l457 -1 15 31 c8 17 19 31 24 31 5 0 29 10 53 22 56 28 84 73 90 148 5 56 4 63 -38 132 -23 40 -104 154 -179 253 -75 99 -162 217 -193 261 -54 77 -57 85 -57 142 l0 60 98 65 c176 119 381 215 493 232 55 8 63 0 64 -65 1 -72 31 -152 73 -201 26 -29 48 -72 68 -129 16 -47 41 -99 56 -116 16 -18 55 -86 88 -153 33 -66 62 -121 64 -121 2 0 38 16 79 36 95 45 168 56 382 57 194 2 213 -3 290 -74 63 -58 82 -101 102 -221 8 -57 17 -109 19 -115 2 -9 28 -13 85 -13 73 0 80 2 74 17 -27 72 -31 168 -6 168 10 0 23 -32 40 -95 24 -88 28 -95 53 -98 38 -4 45 15 52 143 18 311 56 918 62 978 7 80 -12 76 209 43z m1485 -122 c54 -27 100 -100 100 -158 0 -45 -22 -95 -56 -130 -44 -46 -51 -90 -14 -92 54 -2 56 -4 36 -19 -11 -8 -27 -15 -37 -15 -9 0 -19 -8 -21 -18 -4 -13 -18 -21 -44 -25 -69 -12 -91 -9 -97 13 -7 27 -31 25 -51 -5 -33 -50 -126 -21 -126 39 0 31 28 64 62 72 22 5 34 0 59 -26 19 -19 35 -28 41 -22 14 14 -9 55 -46 79 -64 42 -93 141 -61 215 16 40 75 95 108 103 69 15 102 12 147 -11z m284 4 c22 1 45 -3 52 -9 8 -7 28 -9 50 -5 21 4 41 3 49 -4 7 -6 32 -10 56 -9 82 1 124 -7 121 -26 -2 -9 2 -23 8 -30 7 -8 9 -19 5 -25 -3 -5 -3 -16 1 -22 5 -7 9 -19 10 -28 2 -8 5 -26 8 -40 3 -14 8 -45 11 -70 4 -25 11 -50 16 -56 5 -6 7 -19 3 -28 -3 -9 -1 -22 5 -30 6 -7 8 -16 5 -19 -4 -3 -3 -14 1 -24 5 -10 10 -27 11 -38 1 -11 5 -33 9 -50 3 -16 6 -40 6 -52 -1 -12 4 -25 9 -28 6 -4 8 -11 4 -16 -3 -6 -3 -18 1 -27 4 -9 9 -34 10 -55 2 -21 8 -44 14 -51 6 -7 8 -15 5 -18 -8 -9 17 -99 48 -168 36 -82 95 -140 141 -140 39 0 91 51 82 80 -3 10 -1 21 5 25 13 8 13 52 0 60 -5 3 -9 20 -9 38 1 18 -2 46 -5 62 -4 17 -8 47 -11 68 -2 21 -7 42 -10 48 -4 5 -8 32 -10 60 -3 29 -9 57 -15 64 -5 6 -7 15 -4 18 4 3 3 14 -1 24 -9 20 -11 30 -20 87 -3 21 -9 46 -14 55 -5 9 -11 39 -14 66 -3 28 -9 65 -13 83 -17 81 50 189 131 212 25 7 47 16 50 19 5 9 154 5 180 -4 11 -4 48 -20 82 -36 49 -23 66 -37 80 -66 13 -28 14 -38 5 -41 -24 -8 -71 -57 -81 -85 -14 -36 -14 -84 -1 -92 6 -4 8 -15 5 -26 -4 -10 -3 -24 1 -31 8 -13 14 -41 15 -70 0 -10 4 -20 9 -23 5 -3 7 -12 4 -19 -3 -8 0 -17 5 -21 6 -3 9 -10 7 -14 -3 -4 0 -25 6 -47 6 -21 10 -49 9 -61 -1 -11 2 -24 8 -27 6 -4 8 -20 5 -35 -3 -16 -1 -32 5 -35 6 -4 8 -20 5 -35 -3 -16 -1 -31 4 -35 6 -3 8 -23 5 -45 -3 -23 -1 -41 6 -45 14 -9 14 -83 0 -91 -6 -4 -9 -21 -8 -39 3 -36 -23 -101 -53 -133 -18 -19 -39 -29 -128 -60 -26 -10 -191 -10 -197 -1 -2 5 -15 8 -26 7 -12 -1 -35 3 -50 9 -16 7 -33 12 -39 12 -32 0 -167 95 -168 118 -1 4 -11 20 -24 36 l-24 28 0 -41 c0 -22 3 -43 8 -46 4 -3 6 -14 3 -25 -3 -11 -1 -26 5 -33 13 -16 3 -67 -14 -74 -8 -3 -21 0 -29 7 -9 7 -27 10 -45 7 -17 -4 -32 -2 -36 4 -4 7 -23 9 -45 6 -22 -3 -42 -1 -45 5 -4 6 -24 8 -46 5 -46 -6 -100 16 -91 39 3 8 0 20 -6 28 -6 7 -8 15 -5 18 7 8 -17 127 -27 134 -4 2 -6 11 -2 19 3 9 0 21 -6 29 -6 7 -8 16 -4 19 3 4 1 13 -6 20 -6 8 -9 21 -5 30 3 8 1 18 -5 22 -6 3 -8 17 -5 30 3 12 1 26 -5 29 -5 4 -8 13 -4 21 3 8 2 23 -2 33 -5 9 -7 24 -6 34 1 9 -3 19 -9 23 -6 3 -8 11 -4 16 3 5 0 16 -6 24 -6 8 -9 19 -5 25 3 5 3 16 -1 22 -5 7 -9 19 -10 28 -9 56 -14 85 -21 104 -4 11 -6 28 -4 38 1 9 -3 19 -8 23 -6 3 -8 19 -5 34 4 16 1 32 -5 35 -6 4 -9 12 -5 17 3 6 2 18 -2 27 -4 9 -8 24 -10 32 -9 46 -14 80 -19 119 -3 24 -8 48 -12 54 -11 18 -10 61 1 70 6 4 22 4 36 0 14 -4 43 -6 64 -5z m1974 -1 c6 -5 16 -6 21 -3 5 3 22 -1 37 -9 16 -8 35 -15 42 -15 11 0 87 -38 179 -88 13 -8 28 -25 33 -38 5 -13 13 -24 17 -24 5 0 9 -14 10 -32 1 -17 7 -36 13 -42 5 -5 10 -20 10 -31 0 -23 -34 -100 -49 -109 -5 -3 -26 11 -47 31 -44 41 -132 83 -180 86 -18 2 -36 6 -40 10 -11 11 -92 8 -99 -3 -4 -6 -10 -8 -14 -5 -15 9 -83 -34 -99 -62 -10 -18 -16 -60 -18 -118 -4 -133 -7 -129 87 -122 47 3 81 1 85 -5 3 -5 22 -8 43 -7 20 1 43 -1 52 -5 10 -4 23 -6 30 -5 8 1 21 0 29 -3 8 -3 42 -13 75 -23 86 -25 131 -50 191 -107 35 -33 59 -66 70 -97 9 -25 19 -53 22 -61 12 -34 6 -126 -10 -162 -10 -20 -18 -41 -18 -46 0 -27 -105 -87 -181 -102 -30 -6 -61 -14 -69 -17 -25 -9 -211 -9 -217 0 -3 4 -17 7 -31 6 -15 -1 -34 1 -42 4 -8 3 -42 13 -75 22 -33 9 -89 33 -124 53 -35 20 -72 42 -83 48 -27 16 -88 76 -88 87 0 5 -20 36 -45 68 -25 33 -45 63 -45 67 0 7 -17 54 -55 147 -5 11 -8 23 -7 26 1 4 -3 22 -9 40 -9 32 -13 276 -5 329 10 63 57 139 135 217 30 31 99 68 146 79 17 4 35 11 42 16 7 5 17 7 22 3 6 -3 17 -2 26 2 18 10 216 10 233 0z m962 0 c8 -3 38 -13 67 -22 36 -11 64 -29 92 -60 23 -25 41 -48 41 -52 0 -5 -14 -19 -31 -33 -17 -14 -37 -37 -45 -52 -16 -30 -19 -114 -4 -123 5 -3 7 -12 3 -20 -3 -8 -2 -23 2 -32 5 -10 7 -25 6 -35 -1 -9 2 -19 8 -22 5 -3 7 -15 4 -25 -3 -10 0 -22 5 -25 6 -3 8 -15 5 -25 -3 -10 0 -22 6 -25 5 -4 8 -13 5 -20 -3 -8 -1 -17 5 -21 6 -3 8 -17 5 -30 -3 -12 -1 -26 5 -30 6 -3 8 -17 5 -30 -3 -12 -1 -26 5 -29 5 -4 8 -13 4 -21 -3 -8 -2 -23 2 -32 5 -10 7 -25 6 -35 -1 -9 3 -19 9 -23 6 -3 8 -11 5 -16 -4 -5 -3 -15 2 -21 4 -7 9 -22 10 -33 2 -24 9 -57 21 -107 5 -20 7 -39 4 -42 -2 -3 1 -13 9 -22 8 -10 12 -20 9 -23 -3 -3 31 -7 75 -9 85 -3 106 -12 98 -41 -3 -10 0 -22 6 -25 31 -20 6 -28 -78 -24 l-89 3 3 -25 c1 -14 4 -25 5 -25 1 0 3 -13 5 -29 2 -16 7 -36 11 -45 4 -9 6 -23 5 -33 -1 -9 3 -19 8 -22 6 -4 8 -13 4 -21 -3 -9 0 -21 6 -29 15 -18 4 -26 -41 -26 -28 0 -50 9 -85 36 -27 20 -59 42 -73 48 -14 6 -41 23 -60 38 -19 15 -57 37 -85 49 -27 12 -60 29 -72 39 -12 9 -67 32 -123 51 -86 29 -100 37 -98 54 3 17 12 21 58 23 62 4 87 17 69 38 -6 7 -8 18 -4 24 4 6 1 17 -5 25 -6 8 -9 19 -5 25 3 5 3 16 -1 22 -5 7 -9 32 -11 56 -1 24 -7 50 -12 56 -6 7 -8 16 -5 19 4 3 3 14 -1 24 -5 10 -7 25 -6 35 1 9 -3 19 -8 22 -6 4 -8 13 -4 21 3 9 0 21 -6 29 -6 7 -9 21 -5 29 3 9 3 21 -1 28 -4 6 -9 29 -11 51 -1 22 -7 45 -12 50 -6 6 -8 17 -5 24 3 8 0 20 -6 28 -6 7 -8 16 -5 19 4 3 3 14 -1 24 -4 10 -9 27 -11 38 -2 11 -6 34 -9 50 -20 118 -4 245 34 272 12 8 21 21 21 28 0 8 16 21 35 29 19 8 35 20 35 26 0 7 8 9 19 5 11 -3 22 -2 24 2 6 9 124 9 147 0z m-9705 -2648 c4 -5 17 -9 28 -8 25 2 34 -1 129 -44 37 -16 75 -38 84 -48 24 -27 38 -24 55 13 8 18 23 37 35 43 11 6 28 18 37 27 9 9 25 14 36 11 10 -3 22 0 25 6 9 13 90 15 114 2 9 -5 32 -15 50 -21 20 -8 32 -19 32 -31 0 -10 5 -21 11 -25 8 -5 10 -32 5 -90 -4 -53 -2 -85 4 -89 6 -4 8 -21 4 -40 -3 -19 -3 -39 1 -45 4 -7 9 -30 10 -52 2 -21 8 -45 14 -52 6 -7 8 -16 5 -19 -3 -3 -2 -11 2 -18 4 -7 9 -24 10 -37 2 -13 7 -29 13 -36 6 -7 13 -28 15 -47 6 -45 31 -114 56 -154 11 -18 20 -35 20 -38 0 -3 -28 -3 -62 0 -35 3 -83 5 -107 4 -24 -1 -49 3 -56 9 -8 7 -28 8 -49 4 -23 -4 -42 -2 -51 6 -10 8 -30 10 -58 6 -62 -9 -74 7 -77 106 -1 15 -6 30 -11 33 -5 4 -6 17 -3 30 3 13 2 30 -2 37 -5 7 -7 23 -6 35 2 11 -2 24 -7 28 -6 3 -8 17 -5 31 3 13 1 30 -5 38 -6 7 -9 21 -5 30 3 9 1 22 -5 30 -6 7 -8 21 -5 30 4 10 -3 25 -17 40 -61 59 -167 54 -241 -13 -32 -30 -81 -133 -83 -179 -1 -18 -5 -36 -9 -39 -10 -10 -7 -201 3 -208 5 -3 7 -20 4 -39 -3 -20 -1 -36 6 -40 6 -4 8 -18 5 -31 -3 -12 -1 -26 5 -29 5 -4 8 -13 5 -20 -3 -8 -1 -17 5 -20 6 -4 8 -13 5 -20 -3 -8 0 -17 5 -21 6 -3 9 -10 6 -15 -6 -10 17 -78 49 -145 13 -27 32 -67 42 -88 10 -21 27 -49 39 -61 12 -13 25 -31 28 -40 4 -9 11 -16 17 -16 5 0 10 -6 10 -14 0 -15 47 -54 97 -80 67 -34 134 -12 170 57 13 25 17 64 19 176 1 142 2 145 25 154 62 23 259 -45 279 -98 5 -12 14 -26 20 -30 13 -8 55 -87 52 -98 -1 -4 3 -17 9 -28 8 -15 7 -29 -2 -52 -30 -77 -49 -114 -66 -128 -25 -23 -141 -75 -183 -84 -19 -4 -40 -12 -47 -17 -7 -5 -26 -7 -43 -3 -19 4 -36 2 -45 -5 -16 -13 -94 -11 -113 3 -7 5 -32 7 -57 4 -27 -4 -47 -2 -51 4 -3 6 -15 8 -26 6 -11 -3 -28 -2 -37 3 -9 4 -66 24 -128 43 -125 40 -182 76 -306 193 -50 48 -87 95 -116 147 -23 41 -46 77 -52 79 -6 2 -12 15 -13 28 -3 26 -44 157 -54 175 -4 5 -7 16 -8 25 -2 8 -5 29 -9 45 -16 85 -22 299 -10 385 12 88 16 102 31 125 9 14 14 28 11 31 -3 3 8 24 24 47 16 22 29 44 29 49 0 5 14 21 30 35 17 13 30 30 30 36 0 17 179 102 206 99 12 -2 25 2 29 7 3 6 35 11 70 11 35 0 67 -5 70 -11z m1361 0 c3 -6 17 -9 30 -6 14 2 27 0 30 -4 3 -5 13 -9 22 -9 30 0 171 -74 175 -92 8 -29 33 -21 56 17 21 37 70 72 111 81 14 3 33 9 42 15 24 12 115 12 123 -2 4 -5 12 -8 18 -6 7 2 39 -12 72 -30 33 -19 66 -37 73 -41 8 -4 20 -22 27 -40 12 -27 12 -32 0 -32 -22 0 -79 -58 -81 -82 -1 -13 -5 -31 -9 -42 -5 -11 -3 -26 3 -37 7 -10 9 -25 6 -34 -3 -8 -3 -23 1 -32 4 -10 9 -38 11 -62 2 -24 8 -49 14 -56 5 -6 7 -15 3 -18 -3 -4 0 -13 6 -21 7 -8 10 -20 6 -26 -4 -6 -1 -17 5 -25 6 -8 9 -19 5 -25 -3 -5 -3 -16 2 -22 4 -7 9 -22 10 -33 7 -85 14 -130 22 -138 5 -5 7 -16 4 -23 -3 -8 0 -20 6 -28 6 -7 9 -20 5 -29 -3 -8 0 -18 5 -22 6 -3 9 -11 5 -16 -3 -6 -2 -18 2 -27 7 -17 8 -22 18 -77 4 -16 8 -41 11 -55 3 -14 6 -37 5 -52 0 -15 4 -29 9 -33 6 -3 8 -12 4 -20 -3 -9 0 -22 7 -30 13 -16 -15 -16 -155 1 -100 11 -144 16 -180 18 -22 1 -48 6 -57 10 -10 4 -25 6 -33 2 -15 -5 -19 8 -16 46 1 9 -3 19 -9 23 -5 3 -7 17 -4 30 3 12 1 26 -6 30 -6 4 -8 15 -5 25 3 10 1 21 -5 25 -5 3 -7 17 -4 30 3 12 1 26 -4 29 -6 3 -8 15 -5 25 3 10 0 22 -6 25 -5 4 -8 13 -4 21 3 9 0 21 -6 29 -6 7 -8 16 -5 19 4 3 3 14 -1 24 -4 10 -7 28 -6 40 1 11 -3 24 -9 28 -5 3 -8 11 -4 16 3 6 3 18 -1 27 -4 9 -9 37 -11 61 -2 24 -8 49 -14 56 -5 6 -7 15 -4 18 4 3 3 14 -1 24 -5 10 -7 25 -6 35 1 9 -3 19 -9 23 -6 3 -8 11 -4 16 3 6 2 18 -2 27 -8 20 -14 50 -15 74 0 10 -4 20 -10 23 -5 4 -9 15 -9 26 0 27 -27 78 -59 112 -56 61 -124 74 -166 32 -14 -13 -25 -30 -26 -37 -5 -62 -3 -140 3 -144 4 -3 5 -16 2 -29 -3 -12 -1 -26 5 -29 5 -4 8 -13 4 -21 -3 -9 0 -22 7 -30 6 -8 9 -19 5 -25 -4 -6 -4 -19 0 -28 4 -9 9 -37 11 -61 2 -24 8 -49 14 -56 5 -6 7 -15 4 -18 -4 -3 -3 -14 1 -24 5 -10 7 -22 6 -27 -1 -5 1 -16 5 -25 4 -9 8 -23 10 -31 1 -8 5 -27 8 -43 3 -15 8 -39 11 -55 3 -15 6 -39 5 -54 0 -15 4 -29 9 -32 5 -3 7 -15 4 -25 -3 -10 0 -22 6 -25 5 -4 8 -13 4 -21 -3 -9 0 -22 7 -30 6 -8 9 -18 6 -23 -3 -5 -1 -24 5 -43 11 -36 15 -57 22 -102 l4 -27 -66 6 c-36 3 -84 8 -106 10 -98 11 -143 15 -179 14 -22 0 -45 5 -53 11 -7 6 -21 9 -31 7 -11 -3 -18 1 -19 11 -2 29 -12 83 -19 105 -11 31 -15 57 -15 88 0 15 -4 30 -9 33 -6 4 -7 17 -4 30 3 12 1 26 -6 30 -6 4 -8 15 -5 26 4 10 3 24 -1 30 -3 6 -8 31 -10 56 -2 25 -8 51 -14 58 -5 6 -7 15 -4 18 4 3 3 14 -1 24 -5 10 -7 22 -6 27 1 5 -1 16 -5 25 -8 18 -13 45 -17 78 -1 12 -5 25 -9 29 -4 4 -5 17 -2 29 3 13 1 26 -5 29 -5 4 -8 13 -4 21 3 8 2 23 -2 33 -4 9 -8 53 -8 97 0 94 17 143 71 199 37 38 141 96 174 96 9 0 20 5 23 10 8 14 152 13 161 -1z m999 0 c5 -7 25 -8 55 -4 32 4 50 3 55 -5 4 -7 21 -9 45 -5 24 4 41 2 45 -5 5 -8 20 -9 42 -5 21 4 40 2 49 -6 8 -7 28 -9 48 -6 25 4 39 1 50 -12 9 -10 13 -20 10 -24 -4 -3 -3 -14 1 -24 5 -10 7 -25 6 -35 -1 -9 3 -19 8 -22 6 -4 8 -13 4 -21 -3 -9 0 -22 7 -30 6 -8 9 -19 5 -25 -4 -6 -4 -19 0 -28 4 -9 9 -37 11 -61 2 -24 8 -49 14 -56 5 -6 7 -15 4 -18 -4 -3 -3 -14 1 -24 5 -10 7 -22 6 -27 -1 -4 3 -14 10 -22 6 -7 8 -18 4 -24 -3 -5 -3 -16 1 -22 5 -7 9 -19 10 -28 2 -8 5 -28 9 -45 3 -16 6 -42 5 -57 0 -15 4 -29 9 -32 5 -3 7 -15 4 -25 -3 -10 0 -22 6 -25 5 -4 8 -13 5 -20 -3 -8 0 -17 5 -21 6 -3 9 -11 5 -16 -3 -5 -1 -15 4 -22 6 -7 18 -43 28 -80 21 -85 61 -149 107 -170 56 -27 95 -18 118 26 15 26 21 155 8 162 -4 3 -6 19 -3 34 3 16 1 31 -4 35 -6 3 -8 15 -5 25 3 10 0 22 -6 25 -6 4 -8 18 -5 31 3 12 1 26 -4 29 -6 3 -8 15 -5 25 3 10 0 22 -5 25 -6 3 -8 15 -5 25 3 10 0 22 -6 25 -5 4 -8 13 -4 21 3 9 0 21 -6 29 -6 7 -8 16 -5 19 4 3 3 14 -1 24 -4 10 -9 37 -11 61 -2 24 -7 48 -11 55 -4 7 -6 22 -5 34 2 11 -2 24 -7 28 -6 3 -8 17 -5 30 3 12 1 26 -5 29 -29 18 2 137 48 190 22 24 92 60 113 57 9 -1 19 3 23 9 8 13 132 13 140 0 4 -6 14 -10 23 -9 40 6 182 -95 182 -129 0 -4 -15 -15 -33 -25 -18 -10 -39 -28 -46 -40 -16 -24 -24 -144 -10 -152 4 -3 6 -12 2 -20 -3 -9 0 -21 6 -29 6 -7 8 -16 4 -19 -3 -4 -1 -13 6 -20 6 -8 9 -21 5 -30 -3 -8 0 -18 5 -22 6 -3 9 -11 5 -16 -3 -6 -2 -18 2 -27 4 -9 6 -27 5 -39 -1 -11 2 -24 7 -27 6 -3 8 -15 5 -25 -3 -10 0 -22 6 -25 5 -4 8 -13 4 -21 -3 -9 0 -21 6 -29 6 -7 8 -16 5 -19 -4 -3 -3 -14 1 -24 12 -27 17 -77 18 -193 2 -98 0 -109 -28 -168 -16 -34 -33 -62 -38 -62 -4 0 -26 -11 -48 -25 -64 -41 -184 -49 -319 -21 -44 9 -155 64 -176 87 -9 10 -23 19 -31 19 -7 0 -13 4 -13 9 0 17 -53 90 -62 85 -11 -7 -10 -41 1 -48 5 -3 7 -15 4 -26 -3 -11 0 -26 6 -34 6 -7 9 -21 5 -30 -3 -9 -1 -22 5 -30 6 -7 9 -21 5 -29 -6 -16 -43 -16 -139 -2 -62 10 -121 16 -155 16 -47 0 -68 22 -75 78 -4 25 -9 53 -12 61 -3 8 -5 25 -4 37 1 11 -2 24 -8 27 -6 4 -8 13 -4 21 3 9 0 21 -6 29 -6 7 -8 16 -4 19 3 4 0 13 -6 21 -7 8 -10 19 -7 24 3 5 1 24 -5 43 -6 19 -12 52 -15 74 -3 22 -7 47 -11 55 -3 8 -5 25 -4 37 1 11 -2 24 -8 27 -6 4 -8 13 -4 21 3 9 0 22 -7 30 -6 8 -9 19 -5 25 4 6 4 19 0 28 -4 9 -9 34 -10 55 -2 21 -8 44 -14 51 -6 7 -8 16 -5 19 4 3 3 14 -1 24 -5 10 -7 25 -6 35 1 9 -3 19 -9 23 -6 3 -8 11 -4 16 3 5 1 16 -5 23 -6 7 -9 20 -5 29 3 8 1 18 -5 21 -6 4 -8 20 -5 35 3 16 1 31 -4 35 -6 3 -8 15 -5 25 3 10 0 22 -5 25 -6 3 -8 15 -5 25 3 10 0 22 -5 25 -6 3 -8 15 -5 25 3 10 0 22 -6 25 -6 4 -11 14 -11 22 0 17 45 19 55 3z m2881 0 c4 -7 25 -9 59 -4 35 4 55 2 60 -5 4 -7 21 -9 45 -5 25 4 41 2 45 -5 5 -8 22 -10 50 -5 28 4 46 2 50 -5 5 -8 22 -10 50 -6 51 8 50 10 70 -114 3 -19 6 -49 6 -67 -1 -18 3 -34 8 -37 5 -4 7 -15 4 -26 -3 -11 0 -27 7 -35 6 -8 9 -19 5 -25 -4 -6 -3 -19 1 -28 4 -9 9 -26 10 -37 4 -31 12 -77 18 -105 2 -14 7 -41 11 -60 3 -19 8 -48 11 -65 3 -16 5 -42 5 -57 -1 -15 4 -30 9 -33 6 -4 8 -15 5 -26 -4 -10 -3 -24 1 -31 4 -6 8 -24 9 -39 4 -46 63 -159 104 -199 68 -66 109 -65 142 6 16 33 19 53 14 82 -4 20 -9 50 -11 66 -4 36 -32 121 -51 160 -9 16 -11 32 -6 37 8 8 142 15 168 8 6 -1 15 -3 20 -4 6 0 30 -12 54 -26 24 -13 54 -30 67 -37 14 -8 37 -42 55 -80 17 -37 35 -75 40 -84 12 -24 11 -135 -1 -143 -6 -4 -10 -12 -9 -18 4 -24 -43 -108 -65 -116 -12 -5 -28 -16 -35 -25 -7 -9 -21 -16 -30 -16 -9 0 -21 -4 -27 -10 -20 -20 -206 -12 -228 10 -6 6 -16 10 -24 10 -7 0 -28 11 -46 25 -18 14 -37 25 -43 25 -10 0 -48 38 -54 55 -8 22 -54 85 -62 85 -5 0 -5 -10 -1 -22 4 -13 7 -33 6 -45 -1 -12 3 -25 9 -28 5 -4 7 -15 4 -26 -4 -10 -3 -24 2 -31 4 -7 8 -25 8 -40 0 -26 -1 -26 -50 -21 -27 2 -63 7 -80 9 -80 12 -113 16 -145 15 -19 0 -40 5 -47 11 -7 5 -19 8 -27 5 -10 -4 -13 -1 -10 7 3 8 1 17 -5 21 -6 3 -8 17 -5 30 3 12 1 26 -5 29 -5 4 -8 13 -4 21 3 8 2 23 -2 33 -5 9 -7 24 -6 34 1 9 -3 19 -8 22 -6 4 -8 13 -4 21 3 9 0 21 -6 29 -6 7 -8 16 -5 19 4 3 3 14 -1 24 -4 10 -9 27 -11 38 -2 11 -5 27 -7 35 -2 8 -7 39 -12 68 -4 29 -11 55 -16 58 -5 2 -6 18 -3 33 4 16 1 32 -5 35 -6 4 -9 12 -6 17 4 5 3 15 -2 22 -4 6 -9 21 -10 32 -1 11 -4 34 -8 50 -3 17 -6 38 -6 47 0 10 -5 20 -10 23 -5 4 -6 17 -3 30 3 12 1 26 -4 29 -6 3 -8 15 -5 25 3 10 0 22 -5 25 -6 3 -8 15 -5 25 3 10 0 22 -6 25 -6 4 -8 20 -5 35 4 16 1 32 -5 35 -6 4 -9 12 -5 17 3 6 3 18 -1 27 -4 9 -8 34 -10 54 -2 20 -7 43 -11 49 -4 7 -8 25 -9 41 -2 21 2 28 16 28 10 0 21 -5 25 -11z m1499 1 c3 -5 16 -10 28 -10 12 0 50 -13 84 -30 47 -23 66 -39 81 -69 20 -38 20 -40 3 -46 -24 -7 -54 -41 -56 -63 -1 -9 -5 -24 -8 -32 -7 -15 -3 -72 7 -125 10 -47 12 -57 20 -108 5 -26 12 -50 17 -53 5 -3 6 -16 3 -29 -3 -12 -1 -26 5 -30 6 -3 9 -11 5 -16 -3 -6 -2 -18 2 -27 4 -9 9 -26 10 -37 1 -11 5 -33 9 -50 3 -16 6 -38 6 -47 0 -10 5 -20 10 -23 5 -4 6 -17 3 -30 -3 -12 -1 -26 5 -30 6 -3 9 -11 5 -16 -3 -6 -2 -18 2 -27 4 -9 6 -27 5 -39 -1 -11 2 -24 7 -27 6 -3 8 -15 5 -25 -3 -10 0 -22 6 -25 5 -4 8 -13 4 -21 -3 -8 -2 -23 2 -32 4 -10 8 -35 10 -55 2 -20 7 -43 11 -50 4 -6 8 -22 9 -35 1 -23 -1 -23 -65 -18 -36 4 -81 8 -100 11 -65 8 -135 15 -180 18 -69 5 -105 20 -105 42 0 10 -4 25 -8 32 -5 6 -5 17 -2 22 3 6 3 16 -2 23 -8 13 -13 45 -13 89 0 15 -4 29 -9 32 -5 3 -7 15 -4 25 3 10 0 22 -6 25 -5 4 -8 13 -4 21 3 9 0 21 -6 29 -6 7 -8 16 -5 19 4 3 3 14 -1 24 -4 10 -9 25 -10 33 -2 8 -8 29 -13 47 -6 17 -8 34 -5 37 3 2 1 11 -3 18 -9 14 -15 43 -14 75 0 12 -5 25 -11 28 -5 4 -7 15 -4 25 3 10 1 21 -5 25 -6 4 -8 15 -5 26 4 10 3 24 -2 31 -4 7 -9 24 -10 38 -1 14 -5 48 -8 75 -11 99 -8 170 10 212 20 51 109 136 142 136 13 0 26 3 29 8 7 12 111 11 119 -1z m991 -1 c3 -6 19 -9 35 -5 15 3 31 1 34 -5 4 -5 14 -9 23 -8 19 2 31 -2 111 -37 29 -13 57 -22 61 -19 4 3 10 -2 14 -10 3 -8 9 -15 14 -15 20 0 90 -79 97 -108 3 -18 11 -34 16 -37 29 -19 -20 -167 -64 -190 -21 -10 -25 -11 -21 0 6 15 -64 95 -83 95 -7 0 -13 5 -13 10 0 6 -24 21 -52 34 -43 20 -67 23 -133 22 -44 -1 -90 -7 -102 -14 -27 -15 -66 -69 -69 -96 -1 -12 -3 -21 -4 -21 -6 0 -4 -197 2 -201 4 -3 5 -16 2 -29 -3 -12 -1 -26 5 -29 5 -4 8 -13 5 -20 -3 -8 -1 -17 5 -21 6 -3 11 -16 11 -29 0 -72 128 -326 164 -326 7 0 20 -10 28 -21 19 -29 90 -34 114 -8 19 21 30 154 13 164 -5 4 -7 15 -4 26 4 10 3 24 -1 31 -4 7 -9 23 -10 36 -2 13 -8 30 -14 37 -23 27 130 32 193 7 16 -7 32 -12 36 -12 18 0 95 -77 108 -109 40 -94 1 -219 -80 -261 -94 -50 -146 -62 -257 -61 -131 1 -178 9 -285 49 -132 49 -147 56 -178 84 -16 16 -35 28 -42 28 -13 0 -41 28 -59 59 -6 10 -34 51 -61 92 -28 41 -56 94 -64 118 -7 25 -18 56 -23 70 -11 28 -13 33 -23 96 -8 47 -9 259 -2 295 11 53 59 174 73 185 8 6 20 21 27 35 19 37 179 116 229 111 14 -1 29 3 33 8 9 15 182 14 191 0z m1210 0 c3 -6 15 -8 26 -6 11 3 28 2 37 -3 34 -19 147 -62 165 -63 23 -2 102 -71 121 -106 7 -15 15 -59 16 -97 3 -96 -32 -166 -56 -112 -6 13 -46 40 -100 67 -85 43 -95 45 -180 47 -105 3 -139 -9 -173 -61 -21 -29 -24 -47 -25 -126 0 -116 3 -119 128 -119 49 1 101 -2 115 -5 14 -3 39 -7 55 -11 55 -10 60 -11 80 -19 114 -45 142 -58 169 -78 17 -13 38 -26 47 -30 9 -3 23 -18 31 -34 8 -15 27 -49 41 -74 14 -26 24 -48 22 -51 -3 -2 0 -20 5 -39 7 -24 7 -51 -2 -89 -10 -47 -21 -64 -74 -118 -34 -34 -70 -62 -80 -62 -11 0 -32 -7 -49 -16 -36 -19 -167 -37 -215 -29 -19 3 -56 7 -81 9 -74 7 -239 67 -304 111 -33 22 -69 45 -80 51 -11 6 -26 23 -33 37 -7 14 -23 34 -35 44 -12 10 -35 43 -51 73 -16 30 -35 62 -42 71 -8 8 -14 21 -14 28 0 7 -5 22 -12 34 -6 12 -13 35 -15 51 -2 16 -8 34 -13 41 -5 7 -7 15 -4 18 4 3 3 14 -1 24 -22 49 -24 283 -4 318 4 6 14 36 24 67 10 31 26 65 36 74 11 9 19 22 19 29 0 6 12 23 28 37 32 29 166 98 193 98 10 0 21 4 24 10 3 5 19 7 34 4 16 -4 32 -1 35 5 9 15 182 15 192 0z m1010 0 c3 -6 20 -9 38 -6 17 2 38 1 46 -4 22 -12 152 -53 172 -55 19 -1 48 -21 61 -41 4 -7 13 -13 20 -13 12 0 87 -69 87 -81 0 -4 15 -33 33 -66 62 -110 69 -195 23 -275 -20 -34 -101 -128 -111 -128 -11 0 -272 -179 -285 -196 -33 -41 -38 -60 -30 -105 12 -63 20 -80 56 -117 27 -28 41 -34 84 -37 48 -4 54 -1 86 31 25 24 33 40 29 53 -3 11 -1 22 5 26 5 3 10 19 10 35 0 16 -5 32 -10 35 -6 4 -8 15 -5 25 3 10 1 21 -5 25 -6 3 -8 11 -4 16 3 5 0 17 -7 25 -21 25 2 33 99 35 89 1 95 0 129 -28 60 -48 76 -77 81 -142 6 -77 -11 -123 -58 -164 -90 -77 -227 -97 -430 -63 -53 9 -191 66 -237 98 -26 18 -57 38 -68 43 -20 10 -119 192 -122 224 -10 90 -1 124 60 228 13 22 59 63 71 63 13 0 176 111 176 120 0 6 8 14 18 18 35 14 114 113 117 147 0 6 4 16 9 23 4 7 3 19 -3 26 -6 7 -9 21 -5 30 9 24 -55 83 -100 92 -54 10 -110 -10 -138 -49 -19 -26 -23 -45 -22 -97 0 -36 4 -85 9 -109 6 -32 5 -42 -3 -37 -7 4 -26 0 -44 -8 -52 -23 -124 -15 -200 22 -38 18 -68 37 -68 43 0 5 -9 29 -20 51 -26 53 -26 54 10 125 29 58 34 62 113 101 101 49 118 56 139 53 9 -1 19 3 23 9 8 14 162 13 171 -1z m-5701 -60 c8 -12 16 -56 16 -86 -1 -12 4 -25 9 -28 6 -3 7 -17 4 -30 -3 -12 -1 -26 5 -29 5 -4 8 -13 4 -21 -3 -9 0 -22 7 -30 6 -8 9 -19 5 -25 -4 -6 -1 -17 5 -25 6 -8 9 -19 5 -25 -4 -6 -1 -17 5 -25 6 -8 9 -19 5 -25 -3 -5 -3 -16 1 -22 5 -7 9 -19 10 -28 3 -16 10 -54 19 -98 3 -15 6 -39 5 -54 0 -15 4 -30 10 -33 6 -3 7 -17 4 -30 -3 -12 -1 -26 5 -30 6 -3 9 -11 5 -16 -3 -6 -3 -18 1 -27 4 -9 9 -37 11 -61 2 -24 8 -49 14 -56 5 -6 7 -15 4 -18 -4 -3 -3 -14 1 -24 5 -10 7 -25 6 -35 -1 -9 2 -19 8 -22 5 -3 7 -15 4 -25 -3 -10 0 -22 6 -25 5 -4 8 -13 4 -21 -3 -8 -2 -23 2 -33 4 -9 9 -37 11 -61 2 -24 8 -49 14 -56 5 -6 7 -15 4 -18 -4 -3 -3 -14 1 -24 5 -10 7 -22 6 -27 -1 -5 1 -16 5 -25 4 -9 8 -25 10 -36 2 -11 6 -29 8 -40 2 -11 4 -27 5 -35 1 -12 17 -15 89 -13 106 2 147 20 178 80 30 58 27 235 -6 322 -39 104 -124 178 -215 186 -19 2 -44 6 -55 10 -21 7 -21 7 -3 27 20 24 129 78 155 78 9 0 20 5 23 10 8 14 102 13 111 -1 3 -6 19 -9 34 -6 15 3 31 2 36 -2 5 -4 29 -13 54 -20 73 -21 190 -87 205 -117 6 -10 22 -37 37 -59 15 -22 34 -65 43 -95 9 -30 20 -62 24 -70 7 -13 7 -168 1 -180 -2 -3 -4 -9 -5 -15 -4 -28 -46 -105 -80 -145 -40 -48 -74 -69 -158 -95 -29 -9 -59 -19 -67 -22 -8 -3 -25 -5 -37 -4 -13 1 -28 -1 -35 -5 -7 -4 -31 -7 -54 -5 -23 1 -45 -2 -49 -8 -9 -15 -232 -15 -241 0 -5 8 -43 10 -126 7 -66 -3 -121 -1 -124 4 -3 5 -33 8 -67 8 -34 -1 -79 2 -99 5 -33 6 -37 10 -32 30 3 13 1 26 -5 29 -5 4 -8 13 -5 20 3 8 0 17 -6 21 -6 4 -8 15 -5 25 3 10 1 21 -5 25 -5 3 -7 17 -4 30 3 12 1 26 -5 29 -5 4 -8 13 -4 21 3 8 2 23 -2 33 -5 9 -7 27 -6 39 1 11 -2 24 -8 27 -6 4 -8 13 -4 21 3 9 0 21 -6 29 -6 7 -8 16 -5 19 3 3 2 12 -2 19 -5 7 -10 22 -11 33 -2 33 -12 86 -19 107 -9 30 -15 70 -14 100 0 15 -4 29 -9 33 -6 3 -8 12 -4 20 3 9 0 22 -7 30 -6 8 -9 19 -5 25 3 5 3 16 -2 23 -4 6 -9 23 -10 37 -2 14 -3 32 -4 40 -1 8 -5 20 -10 25 -4 6 -10 44 -13 84 -4 40 -10 79 -13 85 -4 6 -6 18 -5 28 2 9 -2 19 -8 23 -5 3 -7 17 -4 30 3 12 1 26 -4 29 -6 3 -8 15 -5 26 3 11 0 26 -6 33 -6 8 -8 17 -5 20 4 3 3 14 -1 24 -4 10 -7 28 -6 40 1 11 -2 24 -8 27 -6 4 -8 13 -5 20 3 8 1 17 -5 20 -6 4 -8 13 -4 21 3 9 0 22 -7 30 -6 8 -9 19 -5 25 9 14 471 14 480 -1z m2710 -1284 c105 -41 118 -51 146 -109 24 -51 24 -54 -6 -120 -21 -47 -32 -58 -73 -77 -53 -24 -67 -28 -135 -36 -30 -3 -53 -1 -60 6 -6 6 -18 11 -26 11 -8 0 -40 12 -70 26 -47 22 -60 35 -79 73 -23 48 -29 96 -13 106 5 3 12 19 16 35 5 25 17 35 63 56 31 14 63 29 71 33 18 9 139 6 166 -4z"/>
<path d="M9400 3696 c0 -8 5 -18 10 -21 6 -4 8 -15 5 -25 -3 -10 -1 -21 5 -25 6 -3 8 -11 5 -16 -4 -5 -3 -14 1 -21 4 -7 9 -24 11 -39 5 -48 52 -162 89 -216 47 -68 113 -99 172 -79 47 16 94 131 62 151 -6 4 -8 15 -5 25 12 38 -87 210 -121 210 -8 0 -14 4 -14 10 0 12 -60 44 -68 36 -3 -3 -11 -1 -18 5 -7 6 -40 12 -73 15 -49 3 -61 1 -61 -10z"/>
<path d="M9658 1053 c-36 -4 -36 -4 -31 -46 2 -23 9 -47 14 -53 5 -6 6 -14 2 -17 -3 -4 -1 -13 5 -20 7 -8 9 -16 6 -19 -8 -8 34 -127 63 -178 23 -40 94 -118 111 -121 4 -1 28 -3 54 -4 41 -2 49 1 70 29 19 26 23 42 22 103 0 40 -6 78 -12 86 -7 8 -9 16 -6 20 9 8 -44 98 -79 135 -37 39 -123 86 -143 78 -7 -3 -16 -1 -19 4 -4 6 -9 9 -13 8 -4 -1 -23 -3 -44 -5z"/>
</g>
<g id="layer105" fill="#dfeae2" stroke="none">
<path d="M0 2320 l0 -2320 6000 0 6000 0 0 2320 0 2320 -6000 0 -6000 0 0 -2320z m5825 2166 c88 -13 210 -31 270 -40 61 -10 178 -27 260 -40 l150 -22 0 -65 c0 -64 -11 -310 -20 -444 -12 -162 -45 -788 -45 -832 0 -40 4 -50 23 -58 18 -8 23 -21 30 -80 5 -38 10 -75 12 -81 5 -17 490 -18 528 -1 21 9 93 10 290 6 462 -12 776 -19 1032 -24 138 -3 549 -12 915 -21 1397 -32 1311 -28 1325 -47 10 -13 29 -17 91 -17 50 -1 88 -6 104 -15 34 -20 109 -19 131 1 22 20 84 12 93 -11 5 -13 66 -15 439 -15 239 0 436 -2 438 -4 2 -2 3 -36 1 -75 l-4 -71 -436 0 c-425 0 -438 -1 -450 -20 -9 -15 -19 -18 -44 -13 -18 3 -37 12 -41 20 -11 19 -80 16 -117 -5 l-31 -17 2 -196 c2 -173 -1 -208 -21 -298 l-23 -101 -74 0 -73 0 3 138 2 137 -72 3 c-58 2 -73 6 -78 20 -6 20 38 20 -1500 7 -368 -2 -824 -5 -1012 -5 -331 0 -343 -1 -343 -19 0 -49 -6 -51 -126 -51 l-114 0 0 35 0 35 -124 0 c-79 0 -127 -4 -132 -11 -4 -8 -433 -10 -1500 -7 -1180 2 -1496 0 -1506 -10 -6 -6 -31 -12 -54 -12 -24 0 -46 -5 -49 -11 -4 -6 9 -37 29 -69 20 -32 36 -61 36 -64 0 -11 -123 -66 -146 -66 -12 0 -29 11 -38 25 -13 20 -25 25 -59 25 -53 0 -112 16 -132 36 -9 9 -15 33 -15 58 0 24 -3 57 -6 74 -6 28 -9 30 -67 37 -50 5 -63 4 -73 -9 -9 -13 -37 -16 -165 -16 -167 0 -235 11 -333 55 -74 33 -180 101 -268 171 -37 30 -80 59 -95 65 -31 12 -74 13 -1353 34 -677 12 -898 18 -975 30 -55 9 -119 18 -141 22 -23 3 -46 8 -51 12 -6 4 -1 58 13 141 13 74 28 200 35 279 13 166 7 537 -12 737 -11 113 -11 137 2 170 l15 39 143 3 144 3 106 -45 c58 -24 158 -66 221 -91 63 -26 169 -70 235 -97 109 -45 353 -145 650 -265 258 -104 706 -277 814 -314 64 -22 149 -44 189 -49 40 -5 279 -10 530 -11 l457 -1 15 31 c8 17 19 31 24 31 5 0 29 10 53 22 56 28 84 73 90 148 5 56 4 63 -38 132 -23 40 -104 154 -179 253 -75 99 -162 217 -193 261 -54 77 -57 85 -57 142 l0 60 98 65 c176 119 381 215 493 232 55 8 63 0 64 -65 1 -72 31 -152 73 -201 26 -29 48 -72 68 -129 16 -47 41 -99 56 -116 16 -18 55 -86 88 -153 33 -66 62 -121 64 -121 2 0 38 16 79 36 95 45 168 56 382 57 194 2 213 -3 290 -74 63 -58 82 -101 102 -221 8 -57 17 -109 19 -115 2 -9 28 -13 85 -13 73 0 80 2 74 17 -27 72 -31 168 -6 168 10 0 23 -32 40 -95 24 -88 28 -95 53 -98 38 -4 45 15 52 143 18 311 56 918 62 978 7 80 -12 76 209 43z m1485 -122 c54 -27 100 -100 100 -158 0 -45 -22 -95 -56 -130 -44 -46 -51 -90 -14 -92 54 -2 56 -4 36 -19 -11 -8 -27 -15 -37 -15 -9 0 -19 -8 -21 -18 -4 -13 -18 -21 -44 -25 -69 -12 -91 -9 -97 13 -7 27 -31 25 -51 -5 -33 -50 -126 -21 -126 39 0 31 28 64 62 72 22 5 34 0 59 -26 19 -19 35 -28 41 -22 14 14 -9 55 -46 79 -64 42 -93 141 -61 215 16 40 75 95 108 103 69 15 102 12 147 -11z m350 1 c19 -2 62 -7 95 -10 33 -4 85 -9 115 -13 l55 -7 42 -205 c23 -113 44 -225 48 -249 18 -125 87 -401 115 -458 45 -90 102 -129 156 -104 56 25 60 132 14 356 -106 514 -108 569 -28 641 53 49 87 59 203 59 95 0 117 -3 162 -24 29 -13 69 -41 88 -62 36 -40 46 -79 21 -79 -25 0 -65 -41 -75 -78 -13 -44 -3 -115 44 -332 58 -267 67 -437 29 -528 -39 -94 -116 -132 -269 -132 -179 0 -282 37 -370 132 -30 33 -55 56 -55 51 0 -4 7 -46 15 -92 8 -47 13 -87 10 -89 -2 -3 -55 1 -117 7 -62 7 -135 15 -163 17 -96 9 -87 -3 -119 161 -47 250 -154 791 -181 918 -14 66 -25 124 -25 128 0 8 101 3 190 -8z m1991 -8 c120 -40 209 -98 249 -162 40 -64 35 -179 -9 -219 -16 -15 -20 -14 -59 23 -95 90 -324 127 -395 63 -44 -40 -65 -128 -50 -212 l9 -45 123 -7 c358 -20 545 -141 559 -362 5 -89 -8 -135 -56 -188 -76 -85 -181 -113 -385 -105 -215 8 -336 57 -473 192 -94 92 -148 188 -186 327 -19 70 -23 107 -23 238 1 152 1 157 32 224 57 128 152 207 289 240 78 19 310 14 375 -7z m928 4 c75 -23 127 -61 149 -109 15 -31 15 -36 2 -40 -8 -3 -27 -17 -42 -32 -40 -41 -44 -93 -14 -245 14 -71 44 -231 66 -355 23 -124 46 -242 51 -262 l10 -38 84 0 c46 0 86 -3 88 -7 3 -5 8 -27 12 -50 l7 -43 -87 0 -87 0 7 -42 c4 -24 16 -76 26 -117 10 -41 16 -78 13 -83 -3 -4 -26 -8 -52 -8 -41 0 -57 7 -117 50 -97 72 -224 141 -335 184 -148 57 -140 52 -140 86 l0 30 59 0 c33 0 62 3 64 8 2 4 -18 115 -44 247 -67 335 -99 522 -99 581 0 116 60 219 145 249 57 20 162 18 234 -4z m-9631 -2664 c35 -14 81 -39 103 -56 l41 -29 46 48 c52 53 95 70 178 70 56 0 110 -15 137 -38 13 -12 17 -31 17 -88 0 -175 56 -450 125 -614 14 -34 24 -64 21 -67 -4 -4 -438 26 -443 31 -4 3 -49 266 -63 361 -14 94 -22 109 -65 130 -86 40 -182 0 -229 -97 -46 -96 -59 -170 -52 -300 17 -327 159 -650 319 -727 54 -26 83 -26 124 -1 49 29 66 100 62 251 -3 92 -1 120 9 124 28 11 140 4 183 -10 60 -21 138 -90 173 -155 21 -39 28 -66 29 -108 1 -181 -200 -293 -496 -278 -307 16 -531 126 -688 338 -77 104 -124 201 -154 321 -116 460 -6 813 282 908 86 29 253 22 341 -14z m1356 5 c32 -12 82 -39 112 -62 l53 -40 17 30 c52 87 198 124 331 85 59 -18 137 -74 158 -115 15 -29 15 -30 -23 -49 -70 -36 -77 -95 -36 -311 14 -74 29 -157 34 -185 17 -98 101 -530 106 -547 4 -14 -1 -18 -21 -18 -34 0 -418 40 -422 44 -4 3 -114 566 -143 731 -34 194 -93 289 -188 302 -31 4 -44 1 -60 -15 -27 -27 -37 -98 -24 -180 22 -136 95 -530 148 -795 9 -43 13 -81 10 -84 -5 -5 -299 19 -412 33 l-40 6 -37 186 c-37 191 -72 374 -81 427 -3 17 -10 55 -16 85 -39 203 -33 283 28 363 41 53 110 102 175 123 64 21 256 13 331 -14z m1109 2 l167 -17 9 -36 c6 -20 17 -76 26 -126 40 -224 107 -565 122 -620 23 -84 76 -187 113 -219 58 -49 122 -26 136 49 10 55 -2 141 -56 414 -74 374 -75 444 -9 511 44 44 92 61 185 67 98 7 167 -8 228 -49 63 -41 109 -118 71 -118 -8 0 -29 -13 -47 -29 -30 -26 -33 -35 -34 -88 -1 -33 13 -127 31 -218 92 -440 86 -618 -24 -692 -49 -33 -104 -45 -201 -45 -169 0 -295 45 -376 135 l-46 52 5 -50 c4 -27 9 -71 13 -96 l6 -45 -133 17 c-74 10 -152 18 -174 19 -22 0 -45 4 -52 8 -6 4 -26 79 -43 167 -17 88 -44 223 -60 300 -28 133 -121 616 -136 699 l-7 39 59 -6 c33 -3 134 -14 227 -23z m2887 0 c91 -8 169 -19 173 -23 4 -4 22 -91 38 -192 88 -529 106 -620 144 -695 57 -116 134 -165 179 -115 41 45 27 186 -30 310 -33 73 -23 84 79 83 136 -2 239 -60 295 -166 24 -45 27 -62 27 -151 0 -108 -15 -154 -67 -202 -106 -99 -339 -85 -463 28 -28 26 -57 59 -64 73 -17 30 -35 35 -26 7 3 -10 12 -53 19 -95 l13 -76 -25 0 c-14 0 -80 7 -146 15 -67 9 -140 18 -162 21 l-42 5 -31 167 c-18 92 -45 232 -61 312 -52 259 -129 664 -131 685 -3 36 0 37 59 31 31 -3 131 -13 222 -22z m1335 5 c63 -23 118 -67 141 -110 18 -36 18 -36 -8 -43 -64 -17 -81 -117 -47 -273 19 -81 41 -190 53 -255 2 -15 23 -123 46 -240 23 -117 45 -232 49 -255 l9 -43 -31 0 c-66 0 -422 42 -427 50 -3 5 -21 89 -39 187 -18 98 -46 236 -62 307 -36 157 -58 302 -66 418 -5 80 -4 92 20 141 27 55 83 104 142 125 52 18 159 14 220 -9z m981 10 c114 -21 212 -67 275 -128 65 -64 85 -115 74 -190 -8 -52 -19 -76 -48 -108 -28 -31 -42 -29 -57 7 -16 39 -81 93 -146 122 -101 44 -227 21 -268 -51 -39 -68 -32 -264 16 -416 56 -179 168 -335 240 -335 43 0 58 16 65 69 6 45 -13 196 -29 225 -15 27 5 36 89 36 170 0 273 -80 273 -215 0 -182 -162 -270 -449 -244 -277 24 -460 136 -570 348 -56 108 -81 209 -88 356 -14 292 84 462 298 519 65 18 242 20 325 5z m1211 -4 c140 -33 257 -109 294 -190 25 -55 25 -141 -1 -182 -11 -18 -22 -33 -26 -33 -3 0 -26 18 -51 40 -71 62 -215 108 -298 94 -112 -18 -148 -69 -143 -204 l3 -85 115 -7 c381 -22 573 -153 573 -389 0 -156 -100 -243 -309 -269 -85 -11 -223 0 -319 25 -178 47 -336 177 -416 343 -50 103 -67 164 -79 285 -26 248 29 407 174 506 41 28 138 67 186 74 64 10 240 6 297 -8z m1108 -19 c101 -34 156 -66 224 -130 87 -83 139 -215 125 -315 -14 -103 -71 -168 -239 -275 -192 -124 -223 -158 -212 -238 10 -74 79 -138 149 -138 51 0 97 43 99 92 3 62 -2 123 -13 156 -13 42 -4 52 54 62 88 17 195 -20 238 -81 44 -61 43 -179 -2 -240 -31 -41 -129 -87 -213 -98 -131 -19 -323 12 -442 70 -203 98 -302 327 -215 495 24 46 68 84 201 173 165 111 213 169 213 259 0 56 -24 91 -77 109 -52 18 -101 9 -136 -26 -43 -44 -47 -96 -17 -220 6 -26 -61 -50 -137 -50 -106 -1 -178 36 -216 111 -53 104 8 207 164 278 84 38 92 39 242 36 109 -3 143 -8 210 -30z m-5793 -351 c92 -469 133 -684 166 -865 l28 -155 87 0 c71 0 91 4 113 21 66 49 87 117 74 237 -22 192 -115 300 -282 325 l-53 8 33 32 c18 17 59 44 90 59 52 25 67 28 162 27 122 0 197 -19 281 -70 145 -87 216 -231 207 -419 -6 -114 -32 -177 -99 -240 -95 -89 -209 -123 -444 -132 -198 -7 -617 16 -638 36 -4 4 -28 120 -52 257 -25 137 -54 294 -65 349 -22 111 -101 524 -130 680 -10 55 -22 121 -26 148 l-6 47 243 -2 244 -3 67 -340z m2705 -984 c55 -28 81 -56 94 -105 13 -49 -3 -120 -34 -154 -100 -108 -369 -84 -432 38 -30 57 -13 152 34 194 65 58 249 73 338 27z"/>
<path d="M4710 3684 c-101 -13 -147 -27 -202 -60 -33 -20 -62 -42 -65 -50 -2 -7 26 -63 64 -123 l68 -111 48 0 47 0 0 44 c0 62 34 165 67 203 15 18 45 40 67 49 45 18 45 25 2 -89 -29 -75 -34 -153 -12 -183 13 -17 30 -19 200 -22 215 -4 197 -16 170 115 -30 146 -68 195 -166 213 -62 12 -237 20 -288 14z"/>
<path d="M7044 3979 c-20 -23 -11 -51 20 -57 41 -8 63 48 27 68 -26 13 -25 13 -47 -11z"/>
<path d="M9415 3701 c-7 -12 9 -85 41 -185 46 -142 99 -227 161 -252 100 -42 153 23 132 160 -19 118 -78 198 -184 246 -65 30 -140 46 -150 31z"/>
<path d="M9630 1019 c33 -141 47 -185 86 -265 47 -100 84 -139 141 -150 83 -16 116 23 111 131 -8 169 -127 298 -289 312 l-57 6 8 -34z"/>
</g>
<g id="layer106" fill="#ffffff" stroke="none">
<path d="M0 2320 l0 -2320 6000 0 6000 0 0 2320 0 2320 -6000 0 -6000 0 0 -2320z m5673 2195 c14 4 28 2 32 -5 4 -6 16 -8 26 -5 11 4 25 2 32 -3 7 -6 23 -10 37 -11 14 0 39 -2 55 -5 71 -12 112 -18 135 -18 14 0 30 -4 37 -10 7 -5 21 -7 33 -3 12 4 27 1 35 -5 8 -6 23 -9 35 -5 12 4 26 2 33 -3 7 -6 23 -10 37 -11 28 0 88 -8 195 -27 31 -5 64 -10 100 -12 18 -2 20 -9 19 -80 0 -42 -4 -85 -9 -95 -4 -10 -5 -47 -2 -82 4 -36 2 -67 -3 -70 -5 -3 -9 -45 -10 -93 -3 -238 -6 -288 -14 -300 -4 -8 -5 -50 -1 -94 4 -56 3 -83 -6 -94 -8 -10 -10 -36 -5 -85 4 -49 3 -76 -5 -86 -8 -9 -10 -37 -6 -87 4 -47 3 -76 -5 -84 -14 -14 -5 -135 10 -140 26 -8 43 -35 38 -58 -3 -12 -1 -26 5 -29 6 -4 7 -19 4 -37 -5 -20 -2 -35 9 -47 15 -16 39 -18 237 -20 143 -2 225 1 233 8 15 13 300 15 651 6 461 -12 651 -16 860 -20 116 -2 307 -6 425 -9 437 -11 649 -17 825 -21 252 -6 773 -18 815 -19 22 -1 40 -8 49 -19 11 -16 25 -18 91 -16 63 3 82 0 98 -14 26 -24 84 -22 107 3 30 33 115 21 115 -16 0 -13 55 -14 438 -12 l437 3 0 -80 0 -80 -432 2 c-416 3 -432 2 -445 -16 -18 -26 -101 -24 -106 2 -4 22 -43 22 -99 1 l-43 -17 0 -153 c0 -91 4 -155 10 -159 13 -8 13 -72 0 -80 -6 -4 -8 -11 -5 -16 4 -5 3 -14 -1 -20 -3 -6 -8 -29 -10 -51 -1 -22 -7 -45 -12 -50 -6 -6 -8 -16 -6 -23 3 -7 1 -16 -5 -19 -6 -4 -8 -12 -5 -19 3 -9 -17 -12 -78 -10 l-83 2 1 43 c1 24 3 86 5 138 l4 95 -77 0 c-71 0 -78 2 -88 24 -10 23 -12 23 -93 15 -45 -4 -496 -9 -1002 -11 -506 -2 -1102 -5 -1324 -6 l-403 -2 -12 -34 -11 -34 -120 1 -120 0 3 36 4 36 -125 0 c-69 0 -127 -4 -129 -9 -2 -6 -584 -11 -1505 -13 -1179 -2 -1504 -6 -1508 -15 -3 -8 -15 -11 -35 -7 -18 4 -36 1 -45 -6 -13 -11 -12 -17 8 -54 12 -22 28 -45 35 -49 6 -4 12 -16 12 -27 0 -23 -94 -70 -150 -75 -35 -3 -40 -1 -52 27 -12 28 -15 30 -61 25 -26 -2 -50 0 -53 5 -3 4 -9 6 -14 3 -5 -3 -24 3 -42 13 -30 17 -33 23 -30 60 2 22 -2 43 -7 47 -6 3 -11 21 -11 39 0 33 -1 34 -57 41 -45 5 -59 4 -68 -8 -8 -12 -43 -15 -175 -17 -91 -1 -169 -1 -175 0 -5 1 -14 2 -19 1 -4 -1 -14 3 -20 8 -7 6 -36 15 -64 21 -28 7 -68 22 -87 36 -20 13 -39 24 -42 24 -13 0 -133 83 -133 91 0 5 -7 9 -15 9 -8 0 -30 16 -49 35 -20 19 -40 35 -45 35 -6 0 -14 7 -19 15 -12 23 -57 26 -362 31 -991 13 -1869 31 -1940 40 -25 3 -58 6 -75 7 -16 1 -36 6 -43 10 -7 5 -21 5 -32 2 -11 -3 -25 -3 -32 2 -7 4 -17 8 -23 9 -46 6 -71 33 -45 49 6 4 8 11 4 16 -3 5 -1 16 5 23 6 7 13 35 16 62 3 27 8 65 11 84 3 19 5 55 5 79 0 25 4 50 10 57 7 8 8 34 4 67 -5 36 -3 57 4 61 15 10 15 422 0 432 -7 4 -9 28 -4 71 5 44 3 68 -5 78 -8 10 -10 30 -6 59 4 24 3 47 -2 49 -4 3 -7 40 -6 82 3 117 3 117 199 113 98 -2 168 -8 180 -15 11 -6 48 -21 82 -33 34 -12 68 -28 74 -36 6 -8 15 -11 21 -8 5 3 20 -1 33 -10 13 -9 30 -16 36 -16 12 0 41 -12 149 -62 25 -11 54 -24 65 -28 11 -4 32 -12 48 -19 48 -20 71 -29 132 -52 33 -12 67 -28 76 -36 9 -7 18 -11 21 -8 6 6 124 -42 147 -59 7 -6 19 -11 25 -11 12 -1 53 -18 99 -41 16 -8 33 -14 39 -14 5 0 26 -7 46 -16 35 -15 46 -20 105 -43 12 -5 45 -17 72 -26 28 -10 57 -24 66 -31 8 -8 25 -14 37 -14 11 0 23 -4 26 -9 3 -4 19 -11 36 -14 17 -4 54 -18 83 -31 124 -58 148 -68 169 -71 29 -3 139 -44 156 -58 7 -5 20 -10 30 -11 25 -2 154 -47 177 -62 37 -24 120 -27 605 -25 l484 3 23 33 c12 18 34 36 50 39 29 8 95 61 86 69 -3 3 2 20 11 38 22 44 21 104 -2 126 -22 21 -82 119 -82 133 0 6 -4 10 -8 10 -10 0 -82 96 -82 109 0 5 -7 11 -15 15 -8 3 -15 12 -15 20 0 7 -7 16 -15 20 -8 3 -15 11 -15 18 0 7 -8 18 -18 24 -10 6 -28 33 -42 58 -13 26 -32 52 -42 57 -10 5 -18 16 -18 24 0 8 -4 15 -8 15 -5 0 -29 30 -54 68 -44 66 -44 68 -40 135 3 49 8 70 19 74 8 3 27 17 41 29 14 13 30 24 37 24 6 0 27 14 45 30 19 17 45 33 59 37 13 3 32 14 42 24 11 11 27 19 37 19 10 0 34 11 52 25 19 14 55 32 80 39 25 8 60 22 78 31 19 10 46 18 60 19 15 1 32 4 37 8 11 7 62 4 69 -3 8 -8 9 -35 2 -51 -5 -10 -5 -26 0 -35 4 -10 8 -22 9 -28 0 -5 4 -16 9 -23 4 -7 6 -16 3 -19 -3 -2 8 -27 24 -54 16 -28 29 -54 29 -59 0 -5 11 -17 24 -26 16 -10 32 -38 47 -82 30 -90 58 -152 69 -152 5 0 15 -11 22 -24 52 -94 69 -129 64 -133 -3 -3 6 -27 19 -53 l24 -48 53 25 c29 14 64 31 78 38 14 6 47 12 74 14 28 1 54 5 59 8 17 10 341 12 389 2 25 -6 58 -21 71 -33 14 -13 32 -26 41 -29 9 -4 19 -15 23 -24 4 -10 12 -22 20 -26 7 -4 13 -15 13 -24 0 -9 7 -24 16 -34 9 -10 17 -31 19 -47 1 -16 5 -34 9 -40 4 -7 4 -21 1 -33 -4 -11 -2 -26 5 -34 6 -7 10 -31 8 -52 l-3 -38 84 -3 c77 -3 83 -1 77 15 -4 10 -10 30 -13 46 -3 15 -9 30 -14 32 -9 6 0 76 12 90 12 13 39 -16 43 -46 2 -13 9 -37 16 -54 7 -16 13 -42 13 -57 0 -23 5 -28 26 -28 36 0 55 44 46 105 -5 29 -3 50 4 59 7 8 12 43 11 78 0 59 3 123 14 278 19 263 26 387 29 510 1 41 6 83 11 93 4 9 6 28 2 41 -7 28 2 40 20 25 6 -5 23 -7 37 -4z m1582 -125 c3 -5 12 -7 19 -4 7 3 19 -2 26 -11 7 -8 20 -15 30 -15 35 0 88 -97 85 -155 -2 -22 -4 -42 -5 -45 -3 -7 -7 -23 -8 -37 -1 -7 -17 -30 -34 -50 -56 -65 -71 -108 -28 -81 23 15 50 4 50 -21 0 -20 -18 -31 -51 -31 -11 0 -18 -4 -15 -9 8 -12 -20 -34 -33 -27 -5 4 -31 2 -57 -4 -44 -10 -50 -9 -64 10 l-16 21 -27 -27 c-37 -37 -82 -37 -114 0 -12 15 -23 37 -23 49 0 22 56 87 76 87 19 0 64 -26 79 -46 7 -11 16 -16 20 -13 3 4 -21 35 -54 68 -41 41 -61 70 -61 86 0 13 -4 27 -10 30 -15 9 -5 79 19 129 26 52 69 88 111 90 16 1 32 5 36 9 10 10 42 9 49 -3z m350 -15 c28 -3 75 -7 105 -10 30 -3 75 -5 99 -5 24 0 49 -4 56 -10 7 -6 26 -10 42 -8 22 2 28 -1 28 -17 0 -11 4 -26 8 -32 5 -7 5 -18 2 -23 -4 -6 -1 -17 5 -25 6 -8 9 -23 5 -34 -3 -10 -1 -22 5 -26 7 -4 9 -18 6 -30 -3 -13 -2 -26 3 -29 5 -3 9 -21 9 -40 0 -19 3 -40 8 -47 4 -7 9 -23 11 -36 2 -12 6 -34 8 -48 3 -14 8 -37 11 -52 3 -16 6 -37 7 -48 1 -11 6 -26 10 -32 5 -7 5 -18 2 -23 -4 -6 -2 -17 4 -23 5 -7 10 -22 10 -32 0 -25 7 -61 20 -104 6 -19 9 -37 6 -39 -3 -3 -1 -10 4 -16 4 -6 18 -42 31 -81 27 -85 57 -134 105 -170 34 -27 36 -27 70 -11 19 9 35 22 35 29 0 7 2 49 3 95 2 46 0 85 -5 88 -5 3 -6 15 -3 25 4 11 1 26 -5 34 -7 8 -10 21 -7 30 4 8 1 17 -4 21 -6 3 -9 15 -6 25 3 10 1 22 -5 25 -5 3 -8 15 -5 25 3 10 1 22 -5 25 -5 3 -8 15 -5 25 3 10 1 21 -4 24 -5 4 -9 16 -9 28 0 41 -5 72 -13 85 -5 6 -5 17 -2 22 4 6 2 17 -4 23 -5 7 -10 22 -10 32 1 11 -2 36 -6 55 -10 54 -14 192 -5 209 4 9 13 28 19 43 13 34 80 79 123 83 18 2 35 4 38 5 13 5 159 2 169 -4 6 -4 15 -5 20 -2 17 11 78 -23 123 -67 77 -75 80 -96 15 -112 -34 -9 -72 -86 -61 -125 4 -14 8 -36 10 -50 8 -57 10 -66 18 -78 4 -7 5 -19 2 -27 -3 -8 -1 -17 4 -20 5 -3 10 -16 9 -28 0 -28 9 -88 17 -107 4 -8 8 -26 11 -40 2 -14 6 -36 9 -50 3 -14 6 -36 7 -50 1 -14 6 -30 10 -37 4 -7 5 -24 1 -38 -3 -14 -2 -31 3 -38 13 -16 14 -149 1 -164 -5 -7 -7 -17 -3 -22 9 -15 -24 -82 -54 -109 -43 -37 -101 -73 -111 -67 -5 3 -11 1 -15 -5 -3 -5 -25 -7 -49 -4 -28 4 -46 2 -51 -5 -5 -9 -10 -9 -21 0 -9 7 -32 10 -64 6 -29 -4 -52 -2 -56 4 -3 6 -12 8 -20 5 -22 -8 -122 33 -159 65 -18 16 -37 29 -43 29 -6 0 -22 15 -37 33 l-26 32 6 -45 c4 -25 8 -56 9 -70 2 -14 6 -32 10 -40 5 -12 -3 -15 -41 -15 -27 0 -54 4 -61 8 -7 5 -26 6 -43 2 -16 -4 -35 -2 -42 4 -7 5 -28 10 -47 10 -98 0 -166 20 -156 46 3 8 1 17 -5 21 -6 3 -8 13 -5 21 4 9 1 22 -5 29 -6 8 -9 20 -6 29 4 8 1 17 -4 21 -6 3 -8 16 -5 29 3 12 2 25 -1 29 -4 4 -9 25 -10 48 -2 22 -8 47 -14 54 -6 7 -8 18 -4 24 4 6 1 17 -5 25 -6 8 -9 19 -5 25 4 6 1 17 -5 25 -6 8 -9 19 -6 24 4 5 1 13 -4 16 -6 4 -10 17 -9 28 1 12 -2 30 -6 40 -4 10 -5 21 -1 24 3 3 1 12 -5 19 -6 8 -9 20 -6 29 4 8 1 17 -4 21 -6 3 -8 17 -5 29 3 13 1 27 -5 31 -6 3 -8 16 -5 27 3 12 1 26 -3 31 -5 6 -11 29 -14 51 -3 22 -8 52 -12 67 -3 16 -8 40 -11 55 -3 16 -7 35 -8 43 -2 8 -6 23 -10 32 -4 9 -5 21 -2 27 4 5 2 12 -4 16 -6 3 -10 18 -10 33 1 33 -5 65 -26 143 -5 17 -3 17 141 4z m1960 5 c0 -1 18 -3 41 -5 22 -2 75 -17 117 -35 95 -40 197 -133 197 -180 0 -16 5 -32 10 -35 26 -16 -7 -155 -37 -155 -7 0 -13 -4 -13 -10 0 -20 -21 -9 -30 15 -5 14 -14 25 -19 25 -5 0 -38 16 -73 36 -34 20 -72 38 -83 39 -11 1 -22 4 -25 5 -3 1 -9 3 -15 4 -5 1 -25 5 -43 10 -25 6 -50 2 -99 -15 -64 -23 -94 -49 -98 -87 -1 -9 -5 -29 -9 -45 -5 -15 -5 -47 -2 -72 9 -60 48 -80 142 -72 37 3 67 1 70 -5 4 -6 19 -7 35 -4 15 3 31 1 34 -5 4 -5 15 -7 25 -4 10 3 21 1 24 -4 4 -6 13 -8 20 -5 8 3 17 1 21 -5 3 -6 18 -11 33 -11 42 0 148 -58 202 -111 52 -51 79 -95 85 -138 2 -14 4 -26 5 -26 1 0 2 -31 4 -70 2 -78 -16 -140 -45 -156 -11 -5 -19 -16 -19 -23 0 -8 -8 -16 -17 -20 -10 -3 -33 -17 -52 -31 -19 -14 -44 -25 -57 -25 -13 0 -26 -5 -29 -10 -4 -6 -15 -8 -25 -5 -10 3 -21 1 -24 -4 -4 -6 -27 -8 -56 -4 -33 4 -55 2 -65 -7 -12 -10 -18 -10 -30 0 -11 9 -32 11 -70 6 -34 -4 -56 -2 -60 5 -4 6 -14 8 -22 5 -8 -3 -20 -3 -26 1 -6 4 -21 8 -34 9 -40 4 -203 83 -210 101 -3 7 -9 13 -13 13 -7 0 -150 137 -150 144 0 2 -15 27 -34 55 -36 53 -81 174 -72 190 4 5 2 12 -4 16 -5 3 -10 16 -9 28 0 12 -3 40 -6 62 -9 67 -8 216 3 282 16 91 43 145 107 208 57 55 175 123 194 111 5 -4 13 -1 16 5 4 6 17 8 29 5 11 -3 26 -2 33 2 9 6 228 7 228 2z m971 -2 c3 -4 12 -4 19 -2 7 3 16 0 20 -5 3 -6 10 -9 15 -6 15 9 67 -23 115 -71 25 -24 45 -48 45 -52 0 -15 -32 -52 -45 -52 -17 0 -46 -40 -38 -53 3 -5 -1 -20 -8 -34 -10 -19 -11 -28 -1 -44 7 -11 10 -29 7 -40 -4 -11 -1 -26 5 -34 7 -8 10 -21 7 -30 -4 -8 -2 -17 3 -20 5 -3 9 -18 9 -33 0 -46 12 -116 23 -129 6 -7 8 -19 5 -28 -4 -8 -1 -17 4 -21 6 -3 9 -15 6 -25 -3 -10 -1 -22 5 -25 5 -3 8 -15 5 -25 -3 -10 -1 -22 5 -25 5 -3 7 -17 4 -29 -3 -13 -1 -27 5 -30 6 -4 8 -18 5 -30 -3 -13 -1 -27 5 -30 6 -4 8 -14 5 -22 -4 -9 -1 -22 5 -29 6 -8 8 -21 5 -30 -4 -9 -1 -23 5 -30 6 -8 9 -20 6 -29 -4 -8 -2 -17 4 -21 5 -3 9 -13 8 -22 -4 -44 -3 -44 91 -40 77 2 91 1 95 -13 3 -10 5 -21 4 -25 -1 -5 1 -17 5 -26 16 -36 3 -43 -76 -39 -68 2 -78 1 -87 -18 -8 -14 -8 -22 0 -26 6 -4 8 -13 5 -21 -3 -7 -1 -16 4 -19 5 -3 10 -16 9 -28 0 -22 2 -38 16 -109 l7 -38 -53 0 c-44 0 -61 6 -106 37 -29 20 -53 40 -53 45 0 4 -4 8 -9 8 -8 0 -174 89 -221 119 -14 8 -29 14 -34 13 -4 -2 -19 5 -33 13 -14 9 -48 23 -76 32 -67 19 -75 27 -74 66 l1 32 65 0 c54 0 65 3 62 15 -2 8 -4 22 -5 30 -1 9 -5 21 -10 28 -4 6 -4 17 -1 22 4 6 1 17 -5 25 -6 8 -9 19 -5 25 4 6 2 17 -4 23 -5 7 -10 22 -10 32 0 19 -14 97 -27 155 -3 14 -7 32 -8 40 -2 8 -6 23 -10 32 -4 9 -5 21 -2 27 4 5 1 13 -5 16 -5 4 -8 14 -5 22 4 9 1 22 -5 29 -6 7 -8 18 -4 24 4 6 1 17 -5 25 -7 8 -10 21 -7 30 4 8 1 17 -4 21 -6 3 -8 17 -5 29 3 13 1 27 -5 30 -6 4 -8 18 -5 30 3 13 2 26 -2 29 -7 4 -8 160 -2 176 1 3 2 8 1 13 -2 13 53 107 62 107 5 0 20 11 33 25 13 14 34 25 48 25 14 0 27 3 29 8 6 9 154 9 163 0z m-9690 -2651 c4 -4 20 -7 35 -7 36 0 136 -37 159 -59 43 -41 51 -40 104 11 29 27 61 48 73 48 12 0 24 3 26 8 4 6 122 8 137 2 3 -1 10 -3 15 -4 6 -2 25 -9 43 -17 31 -13 32 -16 33 -74 1 -33 3 -82 5 -110 4 -44 6 -71 17 -150 1 -11 6 -26 10 -32 5 -7 5 -18 2 -23 -4 -6 -2 -17 5 -24 6 -8 12 -30 14 -48 2 -19 6 -40 10 -47 4 -6 5 -15 2 -19 -3 -5 1 -19 8 -33 7 -13 25 -60 40 -104 15 -44 32 -88 37 -97 5 -10 9 -19 9 -22 0 -9 -94 -15 -105 -6 -7 6 -35 10 -61 10 -27 -1 -71 1 -99 4 -27 2 -81 7 -118 10 -75 5 -101 23 -92 62 2 12 1 24 -3 28 -4 4 -8 22 -9 39 -2 40 -8 76 -29 187 -3 14 -6 36 -7 50 -1 14 -6 31 -10 38 -5 7 -6 21 -2 31 4 15 -5 26 -45 50 -57 35 -87 38 -128 14 -44 -27 -102 -81 -102 -95 0 -7 -7 -22 -15 -32 -8 -11 -15 -30 -15 -42 0 -13 -4 -26 -10 -29 -5 -3 -7 -19 -4 -34 4 -16 1 -32 -5 -35 -15 -9 -15 -153 0 -162 7 -4 9 -22 4 -49 -3 -27 -2 -46 5 -50 5 -3 10 -18 10 -33 -1 -35 4 -60 19 -97 7 -16 14 -43 16 -58 2 -16 8 -34 13 -40 12 -15 36 -85 38 -110 1 -10 8 -23 16 -30 13 -10 38 -49 84 -128 16 -27 46 -59 56 -59 4 0 27 -14 50 -30 22 -17 51 -30 64 -30 33 0 74 21 74 37 0 7 6 16 14 19 8 3 12 12 10 19 -3 7 -1 16 4 19 6 3 8 15 5 25 -3 10 0 22 6 25 15 9 15 178 0 193 -14 14 -8 58 9 59 6 1 15 2 20 4 4 1 41 2 82 1 59 0 85 -5 120 -23 70 -37 100 -59 100 -74 0 -8 5 -14 10 -14 6 0 14 -8 17 -18 4 -9 15 -29 26 -43 23 -32 29 -105 12 -175 -23 -101 -129 -178 -275 -201 -109 -17 -166 -19 -260 -9 -138 14 -151 16 -168 24 -9 5 -22 7 -29 5 -6 -2 -14 1 -18 6 -3 6 -16 11 -28 11 -32 0 -225 98 -237 121 -6 10 -15 19 -20 19 -11 0 -150 139 -150 150 0 5 -11 21 -24 35 -51 55 -162 322 -142 342 3 4 1 12 -5 19 -6 8 -9 20 -6 29 4 8 1 17 -5 21 -6 4 -8 22 -4 45 3 21 2 40 -4 44 -12 7 -10 226 2 242 5 7 7 21 3 33 -4 12 -1 27 5 35 6 8 9 18 6 24 -3 5 -1 22 5 38 7 15 13 36 14 45 1 10 9 26 18 36 9 10 17 24 17 31 0 21 58 99 93 122 17 13 37 28 42 35 19 21 60 44 80 44 11 0 33 7 49 15 15 8 31 13 35 11 4 -3 12 -2 18 2 14 9 170 8 179 -1z m1376 0 c14 -1 30 -5 34 -9 4 -5 20 -8 35 -8 15 0 31 -4 34 -10 3 -5 14 -10 24 -10 10 0 30 -11 45 -25 15 -14 31 -25 35 -25 5 0 14 -7 21 -15 11 -14 15 -12 30 12 23 38 36 47 105 73 67 25 170 30 220 11 83 -31 114 -50 153 -90 42 -43 51 -75 22 -77 -34 -1 -56 -16 -69 -46 -16 -39 -22 -138 -8 -155 5 -7 6 -17 2 -23 -4 -6 -1 -17 5 -25 7 -8 10 -21 7 -30 -4 -8 -1 -17 4 -21 6 -3 8 -19 5 -35 -3 -15 -1 -31 5 -35 6 -3 8 -13 5 -21 -4 -9 -1 -22 5 -29 6 -7 8 -18 4 -24 -4 -6 -1 -17 5 -25 6 -8 9 -19 5 -25 -4 -6 -1 -17 5 -25 6 -8 9 -19 5 -25 -4 -6 -1 -18 6 -26 6 -8 9 -17 6 -21 -4 -3 -2 -12 4 -20 6 -7 9 -22 6 -33 -3 -11 -1 -23 5 -26 5 -3 7 -17 4 -29 -3 -13 -1 -27 5 -31 6 -3 9 -15 6 -25 -3 -10 -1 -22 5 -25 5 -3 7 -17 4 -29 -3 -13 -1 -27 5 -30 5 -4 9 -17 8 -28 -1 -12 1 -29 5 -38 4 -9 6 -20 5 -25 -1 -5 0 -11 1 -14 1 -3 4 -16 6 -30 2 -14 5 -39 8 -57 5 -28 2 -32 -23 -38 -15 -3 -40 -1 -56 5 -16 6 -46 8 -67 5 -24 -4 -44 -2 -53 5 -9 8 -29 9 -54 5 -25 -4 -41 -2 -46 5 -5 8 -22 10 -52 5 -27 -4 -49 -2 -58 5 -7 6 -19 9 -26 8 -7 -2 -14 6 -16 17 -1 11 -5 31 -8 45 -7 33 -16 81 -19 100 -1 9 -5 21 -10 28 -4 6 -4 17 -1 22 4 6 1 17 -5 25 -7 8 -10 21 -7 30 4 8 2 17 -4 20 -5 4 -9 18 -9 33 1 15 -2 41 -5 57 -3 17 -8 48 -11 70 -3 22 -10 45 -16 52 -5 7 -7 17 -3 23 4 6 1 17 -5 25 -6 8 -9 19 -5 25 4 6 1 17 -5 25 -6 8 -9 19 -5 25 4 6 1 17 -5 25 -6 8 -9 19 -5 25 4 6 1 17 -5 25 -7 8 -9 22 -6 31 4 9 1 23 -5 30 -6 7 -8 18 -4 24 4 6 1 17 -5 25 -7 8 -10 21 -7 30 4 8 2 17 -4 20 -5 4 -8 12 -7 18 2 7 -12 33 -30 59 -17 26 -32 51 -32 57 0 6 -7 11 -15 11 -7 0 -18 7 -23 16 -5 8 -26 18 -48 21 -37 4 -41 2 -64 -35 -22 -33 -25 -49 -23 -98 3 -59 9 -109 13 -109 2 0 4 -11 6 -25 7 -52 10 -66 18 -78 4 -6 4 -17 1 -22 -4 -6 -1 -17 5 -25 7 -8 10 -21 7 -30 -4 -8 -1 -17 4 -21 6 -3 9 -17 6 -30 -2 -14 0 -27 5 -30 5 -4 7 -17 4 -29 -3 -13 -1 -27 4 -30 6 -4 8 -16 5 -26 -4 -11 -1 -27 6 -35 6 -8 9 -17 6 -21 -4 -3 -2 -12 4 -19 6 -8 9 -20 6 -29 -4 -8 -1 -17 4 -21 6 -3 8 -17 5 -29 -3 -13 -2 -27 4 -30 5 -3 10 -16 10 -28 0 -41 5 -72 13 -84 5 -7 5 -18 2 -23 -4 -6 -1 -17 5 -25 6 -8 9 -23 5 -34 -3 -10 -2 -22 3 -25 5 -3 10 -23 10 -45 1 -35 -2 -40 -27 -46 -15 -3 -40 -1 -56 5 -16 6 -46 8 -67 5 -25 -5 -44 -2 -53 5 -10 8 -30 10 -59 6 -29 -5 -47 -3 -51 4 -5 8 -23 10 -52 5 -27 -4 -49 -2 -58 5 -7 6 -19 9 -26 8 -8 -2 -14 6 -15 17 -1 11 -2 25 -4 30 -2 6 -5 21 -6 35 -3 21 -12 68 -40 200 -3 14 -6 34 -7 45 -1 11 -6 26 -10 33 -5 6 -5 17 -2 22 4 6 1 17 -5 25 -6 8 -9 19 -5 25 4 6 1 17 -5 25 -6 8 -9 23 -5 34 3 10 1 22 -4 26 -6 3 -11 16 -10 28 0 12 -3 36 -6 52 -4 17 -7 37 -9 45 -1 9 -6 21 -10 28 -4 7 -5 20 -2 29 4 8 1 22 -5 29 -6 7 -8 18 -5 23 4 5 1 13 -4 16 -7 4 -9 19 -5 35 3 16 2 31 -4 35 -14 8 -14 102 0 110 6 4 8 13 5 20 -9 25 71 155 95 155 4 0 20 11 35 25 15 14 34 25 43 25 9 0 29 7 45 15 15 8 32 13 36 10 5 -3 11 -2 13 2 4 7 128 7 209 0z m1023 -2 c22 -2 60 -6 85 -9 25 -2 72 -8 105 -11 33 -4 80 -8 105 -9 25 0 45 -5 46 -11 0 -5 3 -17 7 -25 3 -8 9 -33 13 -55 10 -61 15 -89 18 -105 1 -9 5 -21 10 -28 4 -6 4 -17 1 -22 -4 -6 -1 -17 5 -25 7 -8 10 -21 7 -30 -4 -8 -2 -17 4 -21 5 -3 9 -13 8 -22 -1 -10 1 -25 6 -34 4 -10 5 -25 2 -33 -4 -8 -1 -17 4 -21 6 -3 8 -17 5 -29 -3 -13 -1 -27 5 -30 6 -4 8 -13 5 -21 -3 -7 0 -16 5 -20 6 -3 9 -15 6 -25 -3 -10 -1 -22 5 -25 5 -3 8 -15 5 -25 -3 -10 -1 -22 5 -25 5 -3 8 -16 7 -27 -1 -12 2 -30 6 -40 4 -10 5 -21 1 -24 -3 -3 -1 -12 6 -20 6 -7 8 -16 5 -20 -4 -3 -3 -11 2 -17 5 -6 16 -37 24 -69 14 -52 32 -85 82 -151 9 -12 31 -20 62 -23 48 -4 48 -4 64 34 18 45 15 180 -4 211 -5 7 -6 21 -2 31 3 11 1 22 -5 26 -6 4 -8 15 -5 25 3 10 1 21 -4 25 -6 3 -11 16 -10 28 0 12 -3 36 -6 52 -3 17 -8 48 -11 70 -3 22 -10 45 -16 52 -5 7 -7 17 -3 23 4 6 1 17 -5 25 -6 8 -9 19 -6 24 4 5 1 13 -5 16 -6 4 -8 18 -5 30 3 13 1 27 -5 30 -6 4 -7 19 -4 35 3 15 2 31 -3 34 -5 3 -9 38 -7 78 2 73 18 122 49 147 27 23 90 51 113 51 12 0 24 3 26 8 6 8 150 8 164 -1 4 -3 26 -8 48 -12 62 -11 122 -54 151 -108 19 -36 13 -53 -23 -61 -33 -9 -65 -35 -57 -48 3 -5 0 -15 -6 -23 -11 -14 -10 -52 5 -125 3 -14 7 -34 8 -45 2 -11 6 -26 11 -33 4 -6 5 -16 1 -21 -3 -5 0 -13 6 -16 5 -4 8 -14 5 -22 -4 -9 -1 -22 5 -30 7 -7 9 -16 6 -20 -4 -3 -2 -12 4 -19 6 -8 9 -20 6 -29 -4 -8 -1 -17 4 -21 6 -3 8 -17 5 -29 -3 -13 -1 -27 5 -30 6 -4 8 -18 5 -30 -3 -13 -1 -27 5 -30 6 -4 7 -19 4 -35 -3 -15 -2 -31 3 -34 6 -4 8 -226 1 -246 -1 -3 -1 -8 0 -13 2 -15 -28 -77 -38 -77 -6 0 -11 -7 -11 -15 0 -8 -7 -15 -15 -15 -8 0 -15 -4 -15 -10 0 -14 -38 -32 -79 -37 -65 -8 -279 -4 -301 6 -3 1 -17 4 -32 6 -41 5 -114 50 -162 100 -35 36 -45 42 -50 29 -4 -9 -1 -23 5 -30 6 -8 8 -21 5 -30 -4 -9 -2 -22 4 -29 6 -7 8 -24 5 -38 -6 -23 -10 -25 -48 -20 -23 2 -60 5 -82 6 -22 1 -46 6 -53 10 -7 5 -28 6 -47 3 -20 -4 -36 -2 -40 4 -4 7 -23 9 -51 4 -35 -5 -45 -3 -49 10 -3 9 -8 24 -12 34 -4 9 -7 22 -8 27 0 6 -4 16 -8 23 -5 7 -6 21 -2 31 3 11 2 22 -3 25 -5 3 -10 24 -10 47 -1 22 -6 47 -12 54 -7 8 -9 19 -5 25 4 6 1 17 -5 25 -6 8 -9 23 -5 34 3 10 1 22 -4 26 -6 3 -11 16 -10 28 0 12 -3 33 -6 47 -3 14 -10 48 -15 75 -6 28 -13 61 -16 75 -3 14 -6 32 -8 40 -1 9 -5 21 -10 28 -4 6 -4 17 -1 22 4 6 1 17 -5 25 -7 8 -10 21 -7 30 4 8 1 17 -4 21 -6 3 -8 17 -5 29 3 13 2 27 -4 30 -5 3 -10 16 -10 28 1 32 -5 61 -14 75 -4 6 -4 17 -1 22 4 6 1 17 -5 25 -6 8 -9 19 -5 25 4 6 1 17 -5 25 -6 8 -9 19 -6 24 4 5 1 13 -4 16 -6 4 -10 17 -8 28 1 12 -1 28 -6 35 -4 7 -5 19 -2 27 3 8 1 17 -4 20 -5 3 -8 18 -8 34 1 28 3 29 42 24 23 -2 59 -6 81 -8z m2840 5 c7 -5 29 -9 51 -9 21 0 59 -2 84 -4 25 -3 74 -9 110 -13 36 -4 85 -7 110 -8 32 -1 44 -5 42 -15 -1 -7 2 -19 9 -27 6 -7 8 -18 4 -24 -4 -6 -1 -17 5 -25 6 -8 9 -23 5 -34 -3 -10 -1 -22 5 -26 7 -4 9 -18 6 -30 -3 -13 -1 -27 5 -30 6 -4 8 -18 5 -30 -3 -13 -1 -27 5 -30 6 -4 8 -18 5 -30 -3 -13 -1 -27 5 -30 6 -4 7 -19 4 -35 -4 -17 -2 -31 5 -35 7 -4 9 -18 5 -32 -3 -14 -2 -30 4 -36 5 -7 9 -23 9 -37 0 -23 2 -38 18 -125 3 -16 8 -50 11 -75 2 -25 9 -50 14 -56 5 -7 9 -16 8 -20 -4 -15 43 -120 84 -189 19 -32 32 -42 68 -51 38 -10 47 -9 62 5 23 22 35 115 17 136 -7 8 -10 21 -7 30 4 8 2 17 -4 21 -5 3 -9 13 -8 22 2 19 -12 57 -44 120 -22 43 -22 43 -2 58 11 8 25 12 32 10 7 -3 15 -1 18 4 8 14 52 12 61 -1 4 -7 20 -9 39 -6 24 4 46 -2 79 -19 25 -13 50 -24 56 -24 18 0 112 -103 128 -140 20 -47 23 -192 5 -253 -8 -26 -23 -52 -34 -57 -10 -6 -19 -17 -19 -25 0 -18 -60 -54 -102 -61 -39 -7 -178 -7 -229 0 -20 2 -52 12 -70 21 -43 22 -109 74 -109 85 0 5 -12 22 -26 37 -25 26 -26 27 -19 5 6 -21 9 -41 19 -124 3 -32 -27 -44 -70 -28 -15 6 -40 8 -56 5 -17 -4 -35 -2 -43 5 -8 7 -26 9 -44 5 -18 -4 -32 -2 -36 5 -5 8 -22 10 -49 6 -26 -4 -46 -1 -56 7 -22 19 -42 56 -34 68 3 5 0 16 -6 24 -6 8 -9 19 -6 24 4 5 1 13 -5 16 -6 4 -8 18 -5 30 3 13 1 27 -5 31 -6 3 -9 15 -6 25 3 10 1 22 -5 25 -5 3 -7 17 -4 29 3 13 1 27 -5 30 -6 4 -8 14 -5 22 4 9 1 22 -5 29 -6 8 -9 23 -6 34 3 11 1 23 -5 26 -5 3 -8 15 -5 25 3 10 1 21 -4 24 -5 4 -9 16 -8 28 0 12 -3 34 -6 49 -13 64 -17 84 -18 103 -1 11 -6 26 -10 33 -5 6 -5 17 -2 22 4 6 2 17 -4 23 -5 7 -10 22 -10 32 0 26 -9 84 -18 115 -8 30 -12 48 -16 75 -2 11 -6 26 -11 33 -4 6 -4 17 -1 22 4 6 1 17 -5 25 -6 8 -9 19 -5 25 4 6 1 17 -5 25 -7 8 -10 21 -7 30 4 8 1 17 -4 21 -6 3 -8 16 -5 27 3 12 0 27 -5 34 -6 6 -8 16 -6 20 8 12 69 14 82 3z m1521 -4 c60 -9 137 -65 178 -128 18 -28 15 -48 -8 -48 -25 0 -64 -39 -59 -59 3 -10 0 -22 -6 -25 -14 -9 -14 -73 0 -82 6 -3 8 -17 4 -31 -3 -14 -1 -31 6 -39 6 -7 9 -20 6 -29 -4 -8 -1 -17 4 -21 6 -3 9 -15 6 -25 -3 -10 -1 -21 3 -24 5 -3 9 -13 9 -23 0 -9 3 -30 6 -47 4 -16 8 -37 9 -45 2 -8 6 -22 9 -30 3 -8 6 -22 6 -30 3 -33 8 -66 13 -80 4 -8 7 -22 7 -30 0 -8 3 -27 6 -42 3 -16 8 -40 11 -55 3 -16 7 -39 10 -53 3 -14 6 -32 8 -40 1 -9 5 -21 10 -28 4 -6 4 -17 1 -22 -4 -6 -1 -17 5 -25 6 -8 9 -19 5 -25 -4 -6 -1 -17 5 -25 7 -8 10 -21 7 -30 -4 -8 -1 -17 4 -21 6 -3 8 -17 5 -29 -3 -13 -2 -27 4 -30 25 -15 5 -22 -47 -17 -32 2 -80 4 -107 3 -27 0 -55 4 -62 10 -8 7 -29 8 -53 4 -25 -4 -41 -2 -46 5 -5 8 -24 10 -60 5 -33 -4 -56 -2 -59 4 -4 6 -13 8 -21 4 -14 -5 -16 -2 -19 47 -1 8 -5 21 -9 28 -5 6 -5 17 -2 22 4 6 1 17 -5 25 -6 8 -9 19 -5 25 4 6 1 17 -5 25 -6 8 -9 19 -5 25 4 6 1 17 -5 25 -6 8 -9 19 -5 25 4 6 1 17 -5 25 -6 8 -9 23 -5 34 3 10 1 22 -5 26 -6 4 -9 14 -6 22 4 9 1 22 -5 29 -6 8 -8 21 -5 30 4 9 1 23 -5 30 -6 8 -9 20 -6 29 4 8 2 17 -3 20 -5 3 -9 13 -9 23 -1 20 -8 67 -11 67 -2 0 -4 9 -6 20 -2 11 -6 34 -10 50 -3 17 -6 39 -7 50 -1 11 -6 26 -10 33 -5 7 -6 20 -3 28 3 9 3 21 -1 27 -5 7 -9 30 -10 52 -2 22 -5 67 -9 99 -9 92 9 137 89 217 15 15 45 33 67 41 38 12 139 14 206 4z m989 0 c80 -12 96 -16 107 -22 7 -4 22 -9 34 -10 27 -3 99 -39 123 -62 10 -9 26 -22 37 -28 10 -6 24 -20 29 -31 6 -12 16 -28 23 -36 18 -21 23 -71 16 -145 -6 -54 -12 -69 -41 -100 l-35 -37 -25 30 c-51 61 -92 105 -96 105 -2 0 -26 10 -53 22 -59 26 -161 28 -215 5 -28 -13 -38 -25 -49 -59 -7 -24 -16 -47 -18 -52 -9 -17 -11 -171 -2 -181 5 -5 8 -21 9 -35 0 -35 6 -63 15 -78 4 -6 5 -16 1 -21 -3 -5 -1 -12 4 -15 5 -3 12 -22 15 -41 8 -39 77 -180 101 -206 8 -9 15 -20 15 -25 0 -24 61 -68 99 -71 34 -3 42 0 60 26 22 31 28 95 10 107 -7 4 -9 21 -6 40 3 19 2 36 -3 39 -14 8 -23 86 -12 97 12 12 172 17 179 5 2 -4 8 -5 13 -2 26 16 169 -94 171 -133 6 -110 0 -160 -24 -202 -25 -45 -46 -62 -122 -99 -44 -21 -38 -21 -215 -21 -164 -1 -193 1 -207 12 -7 5 -16 7 -22 4 -5 -3 -22 -1 -38 6 -15 6 -32 10 -37 9 -4 -1 -15 4 -23 11 -8 6 -23 12 -34 13 -10 1 -27 8 -36 16 -10 8 -30 20 -45 27 -16 6 -28 16 -28 22 0 5 -5 10 -11 10 -13 0 -129 115 -129 128 0 5 -6 12 -14 15 -20 8 -86 147 -92 193 -2 21 -9 43 -15 50 -6 7 -8 18 -4 24 4 6 2 16 -3 23 -11 13 -14 48 -14 180 -1 116 3 166 13 173 4 2 6 11 3 18 -3 8 -1 17 5 21 6 3 11 17 11 29 0 13 7 29 15 36 8 7 15 20 15 30 0 36 140 160 181 160 9 0 30 7 47 16 18 8 36 13 42 9 5 -3 16 -2 24 2 15 8 196 7 251 -1z m1183 0 c5 -3 17 -3 25 0 8 3 18 0 22 -5 3 -6 11 -9 16 -5 5 3 27 -3 48 -15 22 -11 41 -17 44 -15 7 7 87 -34 87 -44 0 -4 14 -13 31 -21 18 -8 34 -22 36 -32 3 -11 9 -19 14 -19 12 0 41 -59 34 -70 -3 -5 -2 -11 3 -14 4 -2 7 -32 6 -66 -2 -53 -6 -66 -30 -91 -33 -35 -36 -35 -49 -6 -10 21 -168 110 -179 100 -3 -3 -10 -1 -18 3 -23 14 -154 6 -197 -13 -31 -13 -42 -25 -47 -48 -3 -16 -9 -34 -13 -40 -4 -5 -7 -46 -6 -90 l0 -80 60 -1 c33 -1 89 -5 125 -9 36 -4 76 -7 90 -7 14 0 30 -4 37 -10 7 -5 17 -7 23 -3 5 3 15 3 22 -1 7 -4 26 -9 42 -11 17 -2 47 -14 66 -28 20 -14 43 -25 51 -25 9 0 44 -28 79 -62 65 -63 104 -136 94 -175 -3 -12 -1 -24 5 -27 14 -9 14 -63 0 -71 -6 -4 -8 -14 -5 -22 10 -24 -21 -82 -66 -125 -44 -42 -121 -83 -137 -73 -5 3 -12 1 -16 -5 -7 -11 -9 -11 -180 -10 -119 0 -182 3 -195 9 -3 1 -21 4 -40 7 -44 6 -199 80 -207 100 -3 7 -9 14 -14 14 -12 0 -129 118 -129 130 0 6 -4 10 -10 10 -27 0 -120 220 -120 285 0 19 -5 37 -10 40 -6 4 -7 23 -4 44 4 24 2 41 -5 45 -14 9 -15 143 0 152 6 3 9 19 5 35 -3 15 -1 31 4 34 6 4 8 11 4 16 -3 5 2 23 10 41 9 17 16 37 16 45 0 7 7 16 15 19 8 4 15 14 15 25 0 10 6 22 13 26 8 4 16 16 20 26 3 9 13 17 21 17 7 0 21 11 30 25 9 14 24 25 33 25 9 0 21 6 27 14 11 14 107 44 159 50 15 1 29 5 31 7 7 7 202 3 214 -5z m1047 0 c84 -14 142 -29 156 -42 9 -8 18 -11 22 -8 3 4 18 -3 33 -15 15 -11 33 -21 41 -21 7 0 16 -7 19 -15 3 -8 16 -17 27 -21 27 -8 77 -53 77 -70 0 -6 6 -14 14 -17 17 -7 54 -83 63 -128 3 -19 6 -71 5 -115 -1 -63 -6 -90 -22 -119 -27 -47 -80 -105 -97 -105 -7 0 -13 -4 -13 -9 0 -8 -192 -137 -225 -151 -7 -3 -26 -22 -44 -43 -36 -41 -55 -100 -40 -126 5 -9 13 -28 19 -44 5 -15 21 -32 35 -37 14 -5 25 -14 25 -20 0 -6 4 -9 10 -5 5 3 18 0 30 -7 16 -10 24 -10 40 0 12 7 25 10 29 7 24 -14 64 101 51 146 -5 18 -7 35 -5 39 3 5 -2 21 -10 36 -21 41 -19 63 8 69 42 10 157 13 163 4 3 -5 9 -7 13 -4 10 5 76 -27 101 -50 10 -9 23 -37 30 -63 6 -26 16 -57 22 -69 6 -12 7 -27 2 -35 -5 -7 -9 -26 -10 -42 -1 -16 -9 -35 -18 -41 -9 -7 -16 -17 -16 -23 0 -14 -57 -57 -95 -72 -44 -17 -86 -21 -220 -21 -139 1 -181 3 -190 13 -4 4 -13 4 -20 2 -7 -3 -16 0 -20 5 -3 6 -11 9 -16 5 -20 -12 -158 65 -213 121 -31 30 -56 60 -56 65 0 6 -5 10 -10 10 -13 0 -63 108 -55 120 3 5 1 12 -5 15 -6 4 -8 15 -5 25 3 10 0 28 -7 39 -10 16 -9 25 1 44 7 14 10 30 7 36 -15 24 69 151 100 151 7 0 17 6 21 14 7 13 186 141 239 172 10 6 31 33 46 60 56 100 25 201 -68 219 -44 9 -102 -17 -114 -52 -6 -15 -15 -36 -20 -45 -12 -22 -13 -75 -1 -82 4 -3 11 -18 14 -33 3 -16 9 -36 12 -46 10 -25 -44 -45 -135 -47 -41 -1 -79 -1 -85 0 -5 1 -14 3 -20 5 -5 1 -17 3 -26 3 -21 2 -89 67 -107 100 -35 69 -8 177 54 214 19 11 34 24 34 29 0 16 122 69 157 69 17 0 34 3 36 8 5 7 180 6 232 -2z m-5745 -36 c8 -5 11 -12 7 -16 -4 -4 -2 -13 4 -20 6 -8 9 -20 6 -29 -4 -8 -1 -17 4 -21 6 -3 9 -15 6 -25 -3 -10 -1 -22 5 -25 5 -3 8 -15 5 -25 -3 -10 -1 -22 5 -25 5 -3 7 -17 4 -29 -3 -13 -1 -27 5 -30 6 -4 8 -18 5 -30 -3 -13 -1 -27 5 -30 6 -4 8 -14 5 -22 -4 -9 -1 -22 5 -29 6 -8 8 -21 5 -30 -4 -9 -1 -23 5 -30 6 -7 9 -19 6 -26 -2 -7 0 -24 5 -37 5 -13 11 -47 14 -75 3 -28 9 -55 12 -61 4 -5 8 -28 9 -49 2 -21 8 -45 14 -52 6 -7 8 -18 4 -24 -4 -6 -1 -17 5 -25 6 -8 9 -23 5 -34 -3 -10 -1 -22 4 -26 6 -3 11 -16 10 -28 0 -12 3 -35 6 -52 4 -16 8 -37 9 -45 2 -8 6 -22 9 -30 3 -8 6 -22 6 -30 1 -24 8 -54 16 -73 4 -10 5 -21 1 -24 -3 -3 -1 -12 5 -19 6 -8 9 -20 6 -29 -4 -8 -1 -17 4 -21 6 -3 8 -19 5 -35 -3 -15 -1 -31 5 -34 5 -4 7 -15 4 -25 -3 -10 -1 -21 5 -25 6 -4 9 -14 6 -23 -3 -10 1 -25 9 -36 12 -16 24 -18 83 -13 38 3 79 11 92 18 33 20 70 58 70 73 0 7 3 15 6 19 9 8 11 188 3 193 -4 2 -7 17 -7 32 0 15 -13 51 -31 80 -17 29 -31 56 -31 59 0 15 -55 63 -71 63 -9 0 -22 6 -28 14 -14 16 -61 27 -113 26 -20 0 -40 4 -43 10 -8 13 22 50 40 50 7 0 15 6 18 13 7 17 114 70 126 63 5 -4 12 -2 15 3 8 13 144 13 152 0 3 -6 19 -7 34 -4 16 4 31 2 35 -5 3 -5 10 -8 15 -5 5 3 44 -11 87 -31 98 -47 182 -129 225 -220 16 -35 28 -71 24 -79 -3 -8 -2 -16 2 -19 14 -8 4 -229 -11 -266 -23 -52 -75 -120 -100 -129 -12 -5 -51 -25 -85 -45 -35 -20 -67 -34 -71 -32 -4 3 -20 -2 -36 -10 -16 -8 -35 -12 -43 -9 -8 3 -20 1 -26 -5 -17 -13 -734 -2 -766 13 -8 3 -24 5 -35 4 -15 -1 -21 5 -22 23 -9 89 -15 125 -24 136 -6 7 -8 18 -4 24 4 6 1 17 -5 25 -6 8 -9 19 -5 25 4 6 1 17 -5 25 -6 8 -9 19 -5 25 4 6 1 17 -5 25 -7 8 -10 21 -7 30 4 8 1 17 -4 21 -6 3 -8 17 -5 29 3 13 1 27 -5 30 -6 4 -8 18 -5 30 3 13 1 27 -5 30 -6 4 -8 18 -5 30 3 13 1 27 -4 30 -6 4 -8 15 -5 25 3 10 1 21 -5 25 -7 4 -9 18 -6 30 3 13 2 26 -3 30 -5 3 -10 13 -10 23 -2 41 -7 68 -14 80 -5 6 -5 17 -2 22 4 6 1 17 -5 25 -7 8 -10 21 -7 30 4 8 2 17 -3 20 -5 3 -9 18 -9 33 0 15 -2 38 -5 52 -3 14 -10 50 -16 80 -6 30 -13 66 -16 80 -3 14 -6 34 -7 45 -1 11 -6 26 -10 33 -5 6 -5 17 -2 22 4 6 1 17 -5 25 -6 8 -9 19 -5 25 4 6 1 17 -5 25 -6 8 -9 23 -5 34 3 10 1 22 -4 26 -6 3 -11 16 -11 28 0 38 -5 72 -11 82 -5 8 -5 48 0 63 3 7 478 0 491 -8z m2705 -1300 c0 -1 13 -3 29 -5 47 -6 104 -51 126 -99 21 -48 26 -101 10 -111 -5 -3 -7 -11 -5 -18 7 -17 -32 -77 -50 -77 -8 0 -15 -5 -15 -11 0 -13 -68 -42 -81 -33 -5 3 -15 2 -22 -4 -16 -12 -116 -12 -123 0 -3 5 -14 6 -24 3 -29 -9 -89 22 -138 73 -34 34 -34 36 -34 107 0 25 0 52 1 60 1 20 88 105 109 107 9 0 22 2 29 2 6 1 14 3 16 6 5 4 172 4 172 0z"/>
<path d="M4745 3680 c-4 -6 -28 -10 -53 -9 -71 3 -107 -7 -156 -40 -24 -17 -51 -31 -60 -31 -44 0 -18 -66 86 -217 26 -39 33 -43 70 -43 30 0 39 3 35 14 -9 22 21 177 39 205 24 38 86 92 100 87 6 -2 16 0 22 6 17 17 27 -19 11 -38 -8 -9 -14 -22 -14 -28 0 -16 -26 -89 -36 -102 -9 -11 5 -122 17 -133 3 -3 87 -6 187 -6 l182 0 -2 45 c-3 83 -42 180 -94 238 -31 35 -65 44 -151 43 -26 0 -50 4 -53 9 -8 13 -122 13 -130 0z"/>
<path d="M7037 3973 c-28 -27 26 -61 55 -35 14 11 15 18 7 29 -12 14 -51 18 -62 6z"/>
<path d="M9415 3700 c-4 -6 -1 -17 5 -25 6 -8 9 -19 5 -25 -4 -6 -1 -17 5 -25 6 -8 9 -19 6 -24 -4 -5 -2 -12 3 -15 4 -3 9 -17 9 -30 0 -13 7 -39 16 -56 9 -18 16 -40 16 -47 0 -8 9 -26 20 -40 11 -14 20 -34 20 -43 0 -10 6 -20 14 -23 8 -3 20 -18 28 -33 7 -15 20 -30 28 -34 8 -4 25 -12 37 -18 69 -36 113 7 117 112 1 37 -2 70 -6 72 -5 3 -7 11 -6 17 4 15 -54 114 -85 147 -47 50 -119 85 -169 81 -14 -1 -29 2 -33 8 -8 14 -22 14 -30 1z"/>
<path d="M9630 1029 c6 -11 8 -24 5 -29 -3 -5 -1 -11 4 -15 6 -3 13 -26 17 -52 4 -25 13 -58 20 -72 8 -14 14 -34 14 -43 0 -9 5 -20 10 -23 6 -3 10 -13 10 -21 0 -7 16 -36 35 -63 19 -26 35 -53 35 -60 0 -6 7 -11 15 -11 9 0 18 -6 21 -14 3 -8 12 -12 19 -10 7 3 16 1 20 -5 8 -15 46 -13 65 2 31 25 50 67 50 111 0 25 -5 48 -10 51 -6 4 -9 12 -8 18 1 7 -10 37 -25 67 -44 87 -57 110 -67 110 -4 0 -37 16 -72 36 -46 27 -77 37 -116 40 -49 3 -52 2 -42 -17z"/>
</g>


</svg>